<svg xmlns="http://www.w3.org/2000/svg" xmlns:xlink="http://www.w3.org/1999/xlink" width="600" height="400" viewBox="0 0 2400 1600">
<defs>
  <clipPath id="clip940">
    <rect x="0" y="0" width="2400" height="1600"></rect>
  </clipPath>
</defs>
<path clip-path="url(#clip940)" d="M0 1600 L2400 1600 L2400 0 L0 0  Z" fill="#ffffff" fill-rule="evenodd" fill-opacity="1"></path>
<defs>
  <clipPath id="clip941">
    <rect x="480" y="0" width="1681" height="1600"></rect>
  </clipPath>
</defs>
<path clip-path="url(#clip940)" d="M199.283 1423.18 L2352.76 1423.18 L2352.76 123.472 L199.283 123.472  Z" fill="#ffffff" fill-rule="evenodd" fill-opacity="1"></path>
<defs>
  <clipPath id="clip942">
    <rect x="199" y="123" width="2154" height="1301"></rect>
  </clipPath>
</defs>
<polyline clip-path="url(#clip942)" style="stroke:#000000; stroke-linecap:round; stroke-linejoin:round; stroke-width:2; stroke-opacity:0.1; fill:none" points="199.283,1423.18 199.283,123.472 "></polyline>
<polyline clip-path="url(#clip942)" style="stroke:#000000; stroke-linecap:round; stroke-linejoin:round; stroke-width:2; stroke-opacity:0.1; fill:none" points="677.833,1423.18 677.833,123.472 "></polyline>
<polyline clip-path="url(#clip942)" style="stroke:#000000; stroke-linecap:round; stroke-linejoin:round; stroke-width:2; stroke-opacity:0.1; fill:none" points="1156.38,1423.18 1156.38,123.472 "></polyline>
<polyline clip-path="url(#clip942)" style="stroke:#000000; stroke-linecap:round; stroke-linejoin:round; stroke-width:2; stroke-opacity:0.1; fill:none" points="1634.93,1423.18 1634.93,123.472 "></polyline>
<polyline clip-path="url(#clip942)" style="stroke:#000000; stroke-linecap:round; stroke-linejoin:round; stroke-width:2; stroke-opacity:0.1; fill:none" points="2113.48,1423.18 2113.48,123.472 "></polyline>
<polyline clip-path="url(#clip942)" style="stroke:#000000; stroke-linecap:round; stroke-linejoin:round; stroke-width:2; stroke-opacity:0.1; fill:none" points="199.283,1423.18 2352.76,1423.18 "></polyline>
<polyline clip-path="url(#clip942)" style="stroke:#000000; stroke-linecap:round; stroke-linejoin:round; stroke-width:2; stroke-opacity:0.1; fill:none" points="199.283,1112.54 2352.76,1112.54 "></polyline>
<polyline clip-path="url(#clip942)" style="stroke:#000000; stroke-linecap:round; stroke-linejoin:round; stroke-width:2; stroke-opacity:0.1; fill:none" points="199.283,801.905 2352.76,801.905 "></polyline>
<polyline clip-path="url(#clip942)" style="stroke:#000000; stroke-linecap:round; stroke-linejoin:round; stroke-width:2; stroke-opacity:0.1; fill:none" points="199.283,491.267 2352.76,491.267 "></polyline>
<polyline clip-path="url(#clip942)" style="stroke:#000000; stroke-linecap:round; stroke-linejoin:round; stroke-width:2; stroke-opacity:0.1; fill:none" points="199.283,180.629 2352.76,180.629 "></polyline>
<polyline clip-path="url(#clip940)" style="stroke:#000000; stroke-linecap:round; stroke-linejoin:round; stroke-width:4; stroke-opacity:1; fill:none" points="199.283,1423.18 2352.76,1423.18 "></polyline>
<polyline clip-path="url(#clip940)" style="stroke:#000000; stroke-linecap:round; stroke-linejoin:round; stroke-width:4; stroke-opacity:1; fill:none" points="199.283,1423.18 199.283,1404.28 "></polyline>
<polyline clip-path="url(#clip940)" style="stroke:#000000; stroke-linecap:round; stroke-linejoin:round; stroke-width:4; stroke-opacity:1; fill:none" points="677.833,1423.18 677.833,1404.28 "></polyline>
<polyline clip-path="url(#clip940)" style="stroke:#000000; stroke-linecap:round; stroke-linejoin:round; stroke-width:4; stroke-opacity:1; fill:none" points="1156.38,1423.18 1156.38,1404.28 "></polyline>
<polyline clip-path="url(#clip940)" style="stroke:#000000; stroke-linecap:round; stroke-linejoin:round; stroke-width:4; stroke-opacity:1; fill:none" points="1634.93,1423.18 1634.93,1404.28 "></polyline>
<polyline clip-path="url(#clip940)" style="stroke:#000000; stroke-linecap:round; stroke-linejoin:round; stroke-width:4; stroke-opacity:1; fill:none" points="2113.48,1423.18 2113.48,1404.28 "></polyline>
<path clip-path="url(#clip940)" d="M176.668 1454.1 Q173.056 1454.1 171.228 1457.66 Q169.422 1461.2 169.422 1468.33 Q169.422 1475.44 171.228 1479.01 Q173.056 1482.55 176.668 1482.55 Q180.302 1482.55 182.107 1479.01 Q183.936 1475.44 183.936 1468.33 Q183.936 1461.2 182.107 1457.66 Q180.302 1454.1 176.668 1454.1 M176.668 1450.39 Q182.478 1450.39 185.533 1455 Q188.612 1459.58 188.612 1468.33 Q188.612 1477.06 185.533 1481.67 Q182.478 1486.25 176.668 1486.25 Q170.857 1486.25 167.779 1481.67 Q164.723 1477.06 164.723 1468.33 Q164.723 1459.58 167.779 1455 Q170.857 1450.39 176.668 1450.39 Z" fill="#000000" fill-rule="nonzero" fill-opacity="1"></path><path clip-path="url(#clip940)" d="M196.83 1479.7 L201.714 1479.7 L201.714 1485.58 L196.83 1485.58 L196.83 1479.7 Z" fill="#000000" fill-rule="nonzero" fill-opacity="1"></path><path clip-path="url(#clip940)" d="M221.899 1454.1 Q218.288 1454.1 216.459 1457.66 Q214.653 1461.2 214.653 1468.33 Q214.653 1475.44 216.459 1479.01 Q218.288 1482.55 221.899 1482.55 Q225.533 1482.55 227.339 1479.01 Q229.167 1475.44 229.167 1468.33 Q229.167 1461.2 227.339 1457.66 Q225.533 1454.1 221.899 1454.1 M221.899 1450.39 Q227.709 1450.39 230.765 1455 Q233.843 1459.58 233.843 1468.33 Q233.843 1477.06 230.765 1481.67 Q227.709 1486.25 221.899 1486.25 Q216.089 1486.25 213.01 1481.67 Q209.954 1477.06 209.954 1468.33 Q209.954 1459.58 213.01 1455 Q216.089 1450.39 221.899 1450.39 Z" fill="#000000" fill-rule="nonzero" fill-opacity="1"></path><path clip-path="url(#clip940)" d="M655.83 1454.1 Q652.219 1454.1 650.391 1457.66 Q648.585 1461.2 648.585 1468.33 Q648.585 1475.44 650.391 1479.01 Q652.219 1482.55 655.83 1482.55 Q659.465 1482.55 661.27 1479.01 Q663.099 1475.44 663.099 1468.33 Q663.099 1461.2 661.27 1457.66 Q659.465 1454.1 655.83 1454.1 M655.83 1450.39 Q661.641 1450.39 664.696 1455 Q667.775 1459.58 667.775 1468.33 Q667.775 1477.06 664.696 1481.67 Q661.641 1486.25 655.83 1486.25 Q650.02 1486.25 646.942 1481.67 Q643.886 1477.06 643.886 1468.33 Q643.886 1459.58 646.942 1455 Q650.02 1450.39 655.83 1450.39 Z" fill="#000000" fill-rule="nonzero" fill-opacity="1"></path><path clip-path="url(#clip940)" d="M675.992 1479.7 L680.877 1479.7 L680.877 1485.58 L675.992 1485.58 L675.992 1479.7 Z" fill="#000000" fill-rule="nonzero" fill-opacity="1"></path><path clip-path="url(#clip940)" d="M691.872 1481.64 L699.511 1481.64 L699.511 1455.28 L691.201 1456.95 L691.201 1452.69 L699.465 1451.02 L704.14 1451.02 L704.14 1481.64 L711.779 1481.64 L711.779 1485.58 L691.872 1485.58 L691.872 1481.64 Z" fill="#000000" fill-rule="nonzero" fill-opacity="1"></path><path clip-path="url(#clip940)" d="M1134.57 1454.1 Q1130.95 1454.1 1129.13 1457.66 Q1127.32 1461.2 1127.32 1468.33 Q1127.32 1475.44 1129.13 1479.01 Q1130.95 1482.55 1134.57 1482.55 Q1138.2 1482.55 1140 1479.01 Q1141.83 1475.44 1141.83 1468.33 Q1141.83 1461.2 1140 1457.66 Q1138.2 1454.1 1134.57 1454.1 M1134.57 1450.39 Q1140.38 1450.39 1143.43 1455 Q1146.51 1459.58 1146.51 1468.33 Q1146.51 1477.06 1143.43 1481.67 Q1140.38 1486.25 1134.57 1486.25 Q1128.76 1486.25 1125.68 1481.67 Q1122.62 1477.06 1122.62 1468.33 Q1122.62 1459.58 1125.68 1455 Q1128.76 1450.39 1134.57 1450.39 Z" fill="#000000" fill-rule="nonzero" fill-opacity="1"></path><path clip-path="url(#clip940)" d="M1154.73 1479.7 L1159.61 1479.7 L1159.61 1485.58 L1154.73 1485.58 L1154.73 1479.7 Z" fill="#000000" fill-rule="nonzero" fill-opacity="1"></path><path clip-path="url(#clip940)" d="M1173.82 1481.64 L1190.14 1481.64 L1190.14 1485.58 L1168.2 1485.58 L1168.2 1481.64 Q1170.86 1478.89 1175.44 1474.26 Q1180.05 1469.61 1181.23 1468.27 Q1183.48 1465.74 1184.36 1464.01 Q1185.26 1462.25 1185.26 1460.56 Q1185.26 1457.8 1183.31 1456.07 Q1181.39 1454.33 1178.29 1454.33 Q1176.09 1454.33 1173.64 1455.09 Q1171.21 1455.86 1168.43 1457.41 L1168.43 1452.69 Q1171.25 1451.55 1173.71 1450.97 Q1176.16 1450.39 1178.2 1450.39 Q1183.57 1450.39 1186.76 1453.08 Q1189.96 1455.77 1189.96 1460.26 Q1189.96 1462.39 1189.15 1464.31 Q1188.36 1466.2 1186.25 1468.8 Q1185.68 1469.47 1182.57 1472.69 Q1179.47 1475.88 1173.82 1481.64 Z" fill="#000000" fill-rule="nonzero" fill-opacity="1"></path><path clip-path="url(#clip940)" d="M1612.64 1454.1 Q1609.03 1454.1 1607.2 1457.66 Q1605.39 1461.2 1605.39 1468.33 Q1605.39 1475.44 1607.2 1479.01 Q1609.03 1482.55 1612.64 1482.55 Q1616.27 1482.55 1618.08 1479.01 Q1619.91 1475.44 1619.91 1468.33 Q1619.91 1461.2 1618.08 1457.66 Q1616.27 1454.1 1612.64 1454.1 M1612.64 1450.39 Q1618.45 1450.39 1621.51 1455 Q1624.58 1459.58 1624.58 1468.33 Q1624.58 1477.06 1621.51 1481.67 Q1618.45 1486.25 1612.64 1486.25 Q1606.83 1486.25 1603.75 1481.67 Q1600.7 1477.06 1600.7 1468.33 Q1600.7 1459.58 1603.75 1455 Q1606.83 1450.39 1612.64 1450.39 Z" fill="#000000" fill-rule="nonzero" fill-opacity="1"></path><path clip-path="url(#clip940)" d="M1632.8 1479.7 L1637.69 1479.7 L1637.69 1485.58 L1632.8 1485.58 L1632.8 1479.7 Z" fill="#000000" fill-rule="nonzero" fill-opacity="1"></path><path clip-path="url(#clip940)" d="M1662.04 1466.95 Q1665.39 1467.66 1667.27 1469.93 Q1669.17 1472.2 1669.17 1475.53 Q1669.17 1480.65 1665.65 1483.45 Q1662.13 1486.25 1655.65 1486.25 Q1653.47 1486.25 1651.16 1485.81 Q1648.87 1485.39 1646.41 1484.54 L1646.41 1480.02 Q1648.36 1481.16 1650.67 1481.74 Q1652.99 1482.32 1655.51 1482.32 Q1659.91 1482.32 1662.2 1480.58 Q1664.51 1478.84 1664.51 1475.53 Q1664.51 1472.48 1662.36 1470.77 Q1660.23 1469.03 1656.41 1469.03 L1652.39 1469.03 L1652.39 1465.19 L1656.6 1465.19 Q1660.05 1465.19 1661.88 1463.82 Q1663.7 1462.43 1663.7 1459.84 Q1663.7 1457.18 1661.81 1455.77 Q1659.93 1454.33 1656.41 1454.33 Q1654.49 1454.33 1652.29 1454.75 Q1650.09 1455.16 1647.45 1456.04 L1647.45 1451.88 Q1650.12 1451.14 1652.43 1450.77 Q1654.77 1450.39 1656.83 1450.39 Q1662.15 1450.39 1665.26 1452.83 Q1668.36 1455.23 1668.36 1459.35 Q1668.36 1462.22 1666.71 1464.21 Q1665.07 1466.18 1662.04 1466.95 Z" fill="#000000" fill-rule="nonzero" fill-opacity="1"></path><path clip-path="url(#clip940)" d="M2090.62 1454.1 Q2087.01 1454.1 2085.18 1457.66 Q2083.38 1461.2 2083.38 1468.33 Q2083.38 1475.44 2085.18 1479.01 Q2087.01 1482.55 2090.62 1482.55 Q2094.26 1482.55 2096.06 1479.01 Q2097.89 1475.44 2097.89 1468.33 Q2097.89 1461.2 2096.06 1457.66 Q2094.26 1454.1 2090.62 1454.1 M2090.62 1450.39 Q2096.43 1450.39 2099.49 1455 Q2102.57 1459.58 2102.57 1468.33 Q2102.57 1477.06 2099.49 1481.67 Q2096.43 1486.25 2090.62 1486.25 Q2084.81 1486.25 2081.73 1481.67 Q2078.68 1477.06 2078.68 1468.33 Q2078.68 1459.58 2081.73 1455 Q2084.81 1450.39 2090.62 1450.39 Z" fill="#000000" fill-rule="nonzero" fill-opacity="1"></path><path clip-path="url(#clip940)" d="M2110.78 1479.7 L2115.67 1479.7 L2115.67 1485.58 L2110.78 1485.58 L2110.78 1479.7 Z" fill="#000000" fill-rule="nonzero" fill-opacity="1"></path><path clip-path="url(#clip940)" d="M2138.7 1455.09 L2126.9 1473.54 L2138.7 1473.54 L2138.7 1455.09 M2137.47 1451.02 L2143.35 1451.02 L2143.35 1473.54 L2148.28 1473.54 L2148.28 1477.43 L2143.35 1477.43 L2143.35 1485.58 L2138.7 1485.58 L2138.7 1477.43 L2123.1 1477.43 L2123.1 1472.92 L2137.47 1451.02 Z" fill="#000000" fill-rule="nonzero" fill-opacity="1"></path><path clip-path="url(#clip940)" d="M811.212 1533.76 L811.212 1539.24 Q808.729 1537.87 806.214 1537.2 Q803.732 1536.5 801.186 1536.5 Q795.488 1536.5 792.337 1540.13 Q789.186 1543.73 789.186 1550.25 Q789.186 1556.78 792.337 1560.4 Q795.488 1564 801.186 1564 Q803.732 1564 806.214 1563.33 Q808.729 1562.63 811.212 1561.26 L811.212 1566.68 Q808.761 1567.82 806.119 1568.39 Q803.509 1568.97 800.549 1568.97 Q792.496 1568.97 787.754 1563.91 Q783.011 1558.85 783.011 1550.25 Q783.011 1541.53 787.786 1536.53 Q792.592 1531.54 800.931 1531.54 Q803.636 1531.54 806.214 1532.11 Q808.793 1532.65 811.212 1533.76 Z" fill="#000000" fill-rule="nonzero" fill-opacity="1"></path><path clip-path="url(#clip940)" d="M821.397 1518.52 L827.253 1518.52 L827.253 1568.04 L821.397 1568.04 L821.397 1518.52 Z" fill="#000000" fill-rule="nonzero" fill-opacity="1"></path><path clip-path="url(#clip940)" d="M853.321 1536.5 Q848.61 1536.5 845.873 1540.19 Q843.136 1543.85 843.136 1550.25 Q843.136 1556.65 845.841 1560.34 Q848.578 1564 853.321 1564 Q858 1564 860.737 1560.31 Q863.474 1556.62 863.474 1550.25 Q863.474 1543.92 860.737 1540.23 Q858 1536.5 853.321 1536.5 M853.321 1531.54 Q860.96 1531.54 865.32 1536.5 Q869.681 1541.47 869.681 1550.25 Q869.681 1559 865.32 1564 Q860.96 1568.97 853.321 1568.97 Q845.65 1568.97 841.29 1564 Q836.961 1559 836.961 1550.25 Q836.961 1541.47 841.29 1536.5 Q845.65 1531.54 853.321 1531.54 Z" fill="#000000" fill-rule="nonzero" fill-opacity="1"></path><path clip-path="url(#clip940)" d="M902.114 1533.45 L902.114 1538.98 Q899.631 1537.71 896.958 1537.07 Q894.284 1536.44 891.419 1536.44 Q887.059 1536.44 884.863 1537.77 Q882.698 1539.11 882.698 1541.79 Q882.698 1543.82 884.258 1545 Q885.818 1546.15 890.528 1547.2 L892.533 1547.64 Q898.772 1548.98 901.382 1551.43 Q904.024 1553.85 904.024 1558.21 Q904.024 1563.17 900.077 1566.07 Q896.162 1568.97 889.287 1568.97 Q886.422 1568.97 883.303 1568.39 Q880.216 1567.85 876.778 1566.74 L876.778 1560.69 Q880.025 1562.38 883.176 1563.24 Q886.327 1564.07 889.414 1564.07 Q893.552 1564.07 895.78 1562.66 Q898.008 1561.23 898.008 1558.65 Q898.008 1556.27 896.385 1554.99 Q894.793 1553.72 889.351 1552.54 L887.314 1552.07 Q881.871 1550.92 879.452 1548.56 Q877.033 1546.18 877.033 1542.04 Q877.033 1537.01 880.598 1534.27 Q884.163 1531.54 890.719 1531.54 Q893.966 1531.54 896.83 1532.01 Q899.695 1532.49 902.114 1533.45 Z" fill="#000000" fill-rule="nonzero" fill-opacity="1"></path><path clip-path="url(#clip940)" d="M943.841 1548.76 L943.841 1551.62 L916.914 1551.62 Q917.296 1557.67 920.543 1560.85 Q923.821 1564 929.646 1564 Q933.019 1564 936.17 1563.17 Q939.353 1562.35 942.472 1560.69 L942.472 1566.23 Q939.321 1567.57 936.011 1568.27 Q932.701 1568.97 929.295 1568.97 Q920.765 1568.97 915.768 1564 Q910.803 1559.04 910.803 1550.57 Q910.803 1541.82 915.514 1536.69 Q920.256 1531.54 928.277 1531.54 Q935.47 1531.54 939.64 1536.18 Q943.841 1540.8 943.841 1548.76 M937.985 1547.04 Q937.921 1542.23 935.279 1539.37 Q932.669 1536.5 928.341 1536.5 Q923.439 1536.5 920.479 1539.27 Q917.551 1542.04 917.105 1547.07 L937.985 1547.04 Z" fill="#000000" fill-rule="nonzero" fill-opacity="1"></path><path clip-path="url(#clip940)" d="M976.179 1533.45 L976.179 1538.98 Q973.696 1537.71 971.023 1537.07 Q968.349 1536.44 965.484 1536.44 Q961.124 1536.44 958.928 1537.77 Q956.763 1539.11 956.763 1541.79 Q956.763 1543.82 958.323 1545 Q959.883 1546.15 964.593 1547.2 L966.598 1547.64 Q972.837 1548.98 975.447 1551.43 Q978.089 1553.85 978.089 1558.21 Q978.089 1563.17 974.142 1566.07 Q970.227 1568.97 963.352 1568.97 Q960.487 1568.97 957.368 1568.39 Q954.281 1567.85 950.843 1566.74 L950.843 1560.69 Q954.09 1562.38 957.241 1563.24 Q960.392 1564.07 963.479 1564.07 Q967.617 1564.07 969.845 1562.66 Q972.073 1561.23 972.073 1558.65 Q972.073 1556.27 970.45 1554.99 Q968.858 1553.72 963.416 1552.54 L961.379 1552.07 Q955.936 1550.92 953.517 1548.56 Q951.098 1546.18 951.098 1542.04 Q951.098 1537.01 954.663 1534.27 Q958.228 1531.54 964.784 1531.54 Q968.031 1531.54 970.895 1532.01 Q973.76 1532.49 976.179 1533.45 Z" fill="#000000" fill-rule="nonzero" fill-opacity="1"></path><path clip-path="url(#clip940)" d="M993.207 1522.27 L993.207 1532.4 L1005.27 1532.4 L1005.27 1536.95 L993.207 1536.95 L993.207 1556.3 Q993.207 1560.66 994.385 1561.9 Q995.594 1563.14 999.255 1563.14 L1005.27 1563.14 L1005.27 1568.04 L999.255 1568.04 Q992.475 1568.04 989.897 1565.53 Q987.319 1562.98 987.319 1556.3 L987.319 1536.95 L983.022 1536.95 L983.022 1532.4 L987.319 1532.4 L987.319 1522.27 L993.207 1522.27 Z" fill="#000000" fill-rule="nonzero" fill-opacity="1"></path><path clip-path="url(#clip940)" d="M1057.15 1537.81 L1057.15 1518.52 L1063.01 1518.52 L1063.01 1568.04 L1057.15 1568.04 L1057.15 1562.7 Q1055.3 1565.88 1052.47 1567.44 Q1049.67 1568.97 1045.72 1568.97 Q1039.26 1568.97 1035.19 1563.81 Q1031.15 1558.65 1031.15 1550.25 Q1031.15 1541.85 1035.19 1536.69 Q1039.26 1531.54 1045.72 1531.54 Q1049.67 1531.54 1052.47 1533.1 Q1055.3 1534.62 1057.15 1537.81 M1037.19 1550.25 Q1037.19 1556.71 1039.84 1560.4 Q1042.51 1564.07 1047.16 1564.07 Q1051.8 1564.07 1054.48 1560.4 Q1057.15 1556.71 1057.15 1550.25 Q1057.15 1543.79 1054.48 1540.13 Q1051.8 1536.44 1047.16 1536.44 Q1042.51 1536.44 1039.84 1540.13 Q1037.19 1543.79 1037.19 1550.25 Z" fill="#000000" fill-rule="nonzero" fill-opacity="1"></path><path clip-path="url(#clip940)" d="M1075.07 1532.4 L1080.93 1532.4 L1080.93 1568.04 L1075.07 1568.04 L1075.07 1532.4 M1075.07 1518.52 L1080.93 1518.52 L1080.93 1525.93 L1075.07 1525.93 L1075.07 1518.52 Z" fill="#000000" fill-rule="nonzero" fill-opacity="1"></path><path clip-path="url(#clip940)" d="M1115.91 1533.45 L1115.91 1538.98 Q1113.42 1537.71 1110.75 1537.07 Q1108.08 1536.44 1105.21 1536.44 Q1100.85 1536.44 1098.66 1537.77 Q1096.49 1539.11 1096.49 1541.79 Q1096.49 1543.82 1098.05 1545 Q1099.61 1546.15 1104.32 1547.2 L1106.33 1547.64 Q1112.56 1548.98 1115.17 1551.43 Q1117.82 1553.85 1117.82 1558.21 Q1117.82 1563.17 1113.87 1566.07 Q1109.95 1568.97 1103.08 1568.97 Q1100.21 1568.97 1097.1 1568.39 Q1094.01 1567.85 1090.57 1566.74 L1090.57 1560.69 Q1093.82 1562.38 1096.97 1563.24 Q1100.12 1564.07 1103.21 1564.07 Q1107.34 1564.07 1109.57 1562.66 Q1111.8 1561.23 1111.8 1558.65 Q1111.8 1556.27 1110.18 1554.99 Q1108.59 1553.72 1103.14 1552.54 L1101.11 1552.07 Q1095.66 1550.92 1093.24 1548.56 Q1090.83 1546.18 1090.83 1542.04 Q1090.83 1537.01 1094.39 1534.27 Q1097.95 1531.54 1104.51 1531.54 Q1107.76 1531.54 1110.62 1532.01 Q1113.49 1532.49 1115.91 1533.45 Z" fill="#000000" fill-rule="nonzero" fill-opacity="1"></path><path clip-path="url(#clip940)" d="M1132.93 1522.27 L1132.93 1532.4 L1145 1532.4 L1145 1536.95 L1132.93 1536.95 L1132.93 1556.3 Q1132.93 1560.66 1134.11 1561.9 Q1135.32 1563.14 1138.98 1563.14 L1145 1563.14 L1145 1568.04 L1138.98 1568.04 Q1132.2 1568.04 1129.62 1565.53 Q1127.05 1562.98 1127.05 1556.3 L1127.05 1536.95 L1122.75 1536.95 L1122.75 1532.4 L1127.05 1532.4 L1127.05 1522.27 L1132.93 1522.27 Z" fill="#000000" fill-rule="nonzero" fill-opacity="1"></path><path clip-path="url(#clip940)" d="M1168.9 1550.12 Q1161.8 1550.12 1159.07 1551.75 Q1156.33 1553.37 1156.33 1557.29 Q1156.33 1560.4 1158.37 1562.25 Q1160.43 1564.07 1163.97 1564.07 Q1168.84 1564.07 1171.77 1560.63 Q1174.73 1557.16 1174.73 1551.43 L1174.73 1550.12 L1168.9 1550.12 M1180.58 1547.71 L1180.58 1568.04 L1174.73 1568.04 L1174.73 1562.63 Q1172.72 1565.88 1169.73 1567.44 Q1166.74 1568.97 1162.41 1568.97 Q1156.93 1568.97 1153.69 1565.91 Q1150.47 1562.82 1150.47 1557.67 Q1150.47 1551.65 1154.48 1548.6 Q1158.52 1545.54 1166.51 1545.54 L1174.73 1545.54 L1174.73 1544.97 Q1174.73 1540.93 1172.05 1538.73 Q1169.41 1536.5 1164.6 1536.5 Q1161.55 1536.5 1158.65 1537.23 Q1155.76 1537.97 1153.08 1539.43 L1153.08 1534.02 Q1156.3 1532.78 1159.32 1532.17 Q1162.34 1531.54 1165.21 1531.54 Q1172.94 1531.54 1176.76 1535.55 Q1180.58 1539.56 1180.58 1547.71 Z" fill="#000000" fill-rule="nonzero" fill-opacity="1"></path><path clip-path="url(#clip940)" d="M1222.28 1546.53 L1222.28 1568.04 L1216.42 1568.04 L1216.42 1546.72 Q1216.42 1541.66 1214.45 1539.14 Q1212.47 1536.63 1208.53 1536.63 Q1203.78 1536.63 1201.05 1539.65 Q1198.31 1542.68 1198.31 1547.9 L1198.31 1568.04 L1192.42 1568.04 L1192.42 1532.4 L1198.31 1532.4 L1198.31 1537.93 Q1200.41 1534.72 1203.24 1533.13 Q1206.11 1531.54 1209.83 1531.54 Q1215.98 1531.54 1219.13 1535.36 Q1222.28 1539.14 1222.28 1546.53 Z" fill="#000000" fill-rule="nonzero" fill-opacity="1"></path><path clip-path="url(#clip940)" d="M1259.61 1533.76 L1259.61 1539.24 Q1257.13 1537.87 1254.61 1537.2 Q1252.13 1536.5 1249.59 1536.5 Q1243.89 1536.5 1240.74 1540.13 Q1237.59 1543.73 1237.59 1550.25 Q1237.59 1556.78 1240.74 1560.4 Q1243.89 1564 1249.59 1564 Q1252.13 1564 1254.61 1563.33 Q1257.13 1562.63 1259.61 1561.26 L1259.61 1566.68 Q1257.16 1567.82 1254.52 1568.39 Q1251.91 1568.97 1248.95 1568.97 Q1240.9 1568.97 1236.15 1563.91 Q1231.41 1558.85 1231.41 1550.25 Q1231.41 1541.53 1236.19 1536.53 Q1240.99 1531.54 1249.33 1531.54 Q1252.04 1531.54 1254.61 1532.11 Q1257.19 1532.65 1259.61 1533.76 Z" fill="#000000" fill-rule="nonzero" fill-opacity="1"></path><path clip-path="url(#clip940)" d="M1300.29 1548.76 L1300.29 1551.62 L1273.36 1551.62 Q1273.74 1557.67 1276.99 1560.85 Q1280.27 1564 1286.09 1564 Q1289.47 1564 1292.62 1563.17 Q1295.8 1562.35 1298.92 1560.69 L1298.92 1566.23 Q1295.77 1567.57 1292.46 1568.27 Q1289.15 1568.97 1285.74 1568.97 Q1277.21 1568.97 1272.22 1564 Q1267.25 1559.04 1267.25 1550.57 Q1267.25 1541.82 1271.96 1536.69 Q1276.7 1531.54 1284.72 1531.54 Q1291.92 1531.54 1296.09 1536.18 Q1300.29 1540.8 1300.29 1548.76 M1294.43 1547.04 Q1294.37 1542.23 1291.73 1539.37 Q1289.12 1536.5 1284.79 1536.5 Q1279.89 1536.5 1276.93 1539.27 Q1274 1542.04 1273.55 1547.07 L1294.43 1547.04 Z" fill="#000000" fill-rule="nonzero" fill-opacity="1"></path><path clip-path="url(#clip940)" d="M1330.62 1532.4 L1336.48 1532.4 L1336.48 1568.04 L1330.62 1568.04 L1330.62 1532.4 M1330.62 1518.52 L1336.48 1518.52 L1336.48 1525.93 L1330.62 1525.93 L1330.62 1518.52 Z" fill="#000000" fill-rule="nonzero" fill-opacity="1"></path><path clip-path="url(#clip940)" d="M1378.36 1546.53 L1378.36 1568.04 L1372.51 1568.04 L1372.51 1546.72 Q1372.51 1541.66 1370.53 1539.14 Q1368.56 1536.63 1364.61 1536.63 Q1359.87 1536.63 1357.13 1539.65 Q1354.4 1542.68 1354.4 1547.9 L1354.4 1568.04 L1348.51 1568.04 L1348.51 1532.4 L1354.4 1532.4 L1354.4 1537.93 Q1356.5 1534.72 1359.33 1533.13 Q1362.2 1531.54 1365.92 1531.54 Q1372.06 1531.54 1375.21 1535.36 Q1378.36 1539.14 1378.36 1546.53 Z" fill="#000000" fill-rule="nonzero" fill-opacity="1"></path><path clip-path="url(#clip940)" d="M1426.97 1550.12 Q1419.87 1550.12 1417.13 1551.75 Q1414.39 1553.37 1414.39 1557.29 Q1414.39 1560.4 1416.43 1562.25 Q1418.5 1564.07 1422.03 1564.07 Q1426.9 1564.07 1429.83 1560.63 Q1432.79 1557.16 1432.79 1551.43 L1432.79 1550.12 L1426.97 1550.12 M1438.65 1547.71 L1438.65 1568.04 L1432.79 1568.04 L1432.79 1562.63 Q1430.79 1565.88 1427.79 1567.44 Q1424.8 1568.97 1420.47 1568.97 Q1415 1568.97 1411.75 1565.91 Q1408.54 1562.82 1408.54 1557.67 Q1408.54 1551.65 1412.55 1548.6 Q1416.59 1545.54 1424.58 1545.54 L1432.79 1545.54 L1432.79 1544.97 Q1432.79 1540.93 1430.12 1538.73 Q1427.48 1536.5 1422.67 1536.5 Q1419.61 1536.5 1416.72 1537.23 Q1413.82 1537.97 1411.15 1539.43 L1411.15 1534.02 Q1414.36 1532.78 1417.39 1532.17 Q1420.41 1531.54 1423.27 1531.54 Q1431.01 1531.54 1434.83 1535.55 Q1438.65 1539.56 1438.65 1547.71 Z" fill="#000000" fill-rule="nonzero" fill-opacity="1"></path><path clip-path="url(#clip940)" d="M1471.37 1537.87 Q1470.38 1537.3 1469.2 1537.04 Q1468.06 1536.76 1466.66 1536.76 Q1461.69 1536.76 1459.02 1540 Q1456.38 1543.22 1456.38 1549.27 L1456.38 1568.04 L1450.49 1568.04 L1450.49 1532.4 L1456.38 1532.4 L1456.38 1537.93 Q1458.22 1534.69 1461.18 1533.13 Q1464.14 1531.54 1468.38 1531.54 Q1468.98 1531.54 1469.71 1531.63 Q1470.44 1531.7 1471.34 1531.85 L1471.37 1537.87 Z" fill="#000000" fill-rule="nonzero" fill-opacity="1"></path><path clip-path="url(#clip940)" d="M1501.73 1533.76 L1501.73 1539.24 Q1499.25 1537.87 1496.73 1537.2 Q1494.25 1536.5 1491.71 1536.5 Q1486.01 1536.5 1482.86 1540.13 Q1479.71 1543.73 1479.71 1550.25 Q1479.71 1556.78 1482.86 1560.4 Q1486.01 1564 1491.71 1564 Q1494.25 1564 1496.73 1563.33 Q1499.25 1562.63 1501.73 1561.26 L1501.73 1566.68 Q1499.28 1567.82 1496.64 1568.39 Q1494.03 1568.97 1491.07 1568.97 Q1483.02 1568.97 1478.27 1563.91 Q1473.53 1558.85 1473.53 1550.25 Q1473.53 1541.53 1478.31 1536.53 Q1483.11 1531.54 1491.45 1531.54 Q1494.16 1531.54 1496.73 1532.11 Q1499.31 1532.65 1501.73 1533.76 Z" fill="#000000" fill-rule="nonzero" fill-opacity="1"></path><path clip-path="url(#clip940)" d="M1534.64 1533.45 L1534.64 1538.98 Q1532.16 1537.71 1529.49 1537.07 Q1526.81 1536.44 1523.95 1536.44 Q1519.59 1536.44 1517.39 1537.77 Q1515.23 1539.11 1515.23 1541.79 Q1515.23 1543.82 1516.79 1545 Q1518.35 1546.15 1523.06 1547.2 L1525.06 1547.64 Q1531.3 1548.98 1533.91 1551.43 Q1536.55 1553.85 1536.55 1558.21 Q1536.55 1563.17 1532.61 1566.07 Q1528.69 1568.97 1521.82 1568.97 Q1518.95 1568.97 1515.83 1568.39 Q1512.74 1567.85 1509.31 1566.74 L1509.31 1560.69 Q1512.55 1562.38 1515.7 1563.24 Q1518.86 1564.07 1521.94 1564.07 Q1526.08 1564.07 1528.31 1562.66 Q1530.54 1561.23 1530.54 1558.65 Q1530.54 1556.27 1528.91 1554.99 Q1527.32 1553.72 1521.88 1552.54 L1519.84 1552.07 Q1514.4 1550.92 1511.98 1548.56 Q1509.56 1546.18 1509.56 1542.04 Q1509.56 1537.01 1513.13 1534.27 Q1516.69 1531.54 1523.25 1531.54 Q1526.49 1531.54 1529.36 1532.01 Q1532.22 1532.49 1534.64 1533.45 Z" fill="#000000" fill-rule="nonzero" fill-opacity="1"></path><path clip-path="url(#clip940)" d="M1576.37 1548.76 L1576.37 1551.62 L1549.44 1551.62 Q1549.82 1557.67 1553.07 1560.85 Q1556.35 1564 1562.17 1564 Q1565.55 1564 1568.7 1563.17 Q1571.88 1562.35 1575 1560.69 L1575 1566.23 Q1571.85 1567.57 1568.54 1568.27 Q1565.23 1568.97 1561.82 1568.97 Q1553.29 1568.97 1548.3 1564 Q1543.33 1559.04 1543.33 1550.57 Q1543.33 1541.82 1548.04 1536.69 Q1552.78 1531.54 1560.81 1531.54 Q1568 1531.54 1572.17 1536.18 Q1576.37 1540.8 1576.37 1548.76 M1570.51 1547.04 Q1570.45 1542.23 1567.81 1539.37 Q1565.2 1536.5 1560.87 1536.5 Q1555.97 1536.5 1553.01 1539.27 Q1550.08 1542.04 1549.63 1547.07 L1570.51 1547.04 Z" fill="#000000" fill-rule="nonzero" fill-opacity="1"></path><path clip-path="url(#clip940)" d="M1611.64 1533.76 L1611.64 1539.24 Q1609.15 1537.87 1606.64 1537.2 Q1604.16 1536.5 1601.61 1536.5 Q1595.91 1536.5 1592.76 1540.13 Q1589.61 1543.73 1589.61 1550.25 Q1589.61 1556.78 1592.76 1560.4 Q1595.91 1564 1601.61 1564 Q1604.16 1564 1606.64 1563.33 Q1609.15 1562.63 1611.64 1561.26 L1611.64 1566.68 Q1609.18 1567.82 1606.54 1568.39 Q1603.93 1568.97 1600.97 1568.97 Q1592.92 1568.97 1588.18 1563.91 Q1583.44 1558.85 1583.44 1550.25 Q1583.44 1541.53 1588.21 1536.53 Q1593.02 1531.54 1601.35 1531.54 Q1604.06 1531.54 1606.64 1532.11 Q1609.22 1532.65 1611.64 1533.76 Z" fill="#000000" fill-rule="nonzero" fill-opacity="1"></path><path clip-path="url(#clip940)" d="M1635.63 1536.5 Q1630.92 1536.5 1628.19 1540.19 Q1625.45 1543.85 1625.45 1550.25 Q1625.45 1556.65 1628.15 1560.34 Q1630.89 1564 1635.63 1564 Q1640.31 1564 1643.05 1560.31 Q1645.79 1556.62 1645.79 1550.25 Q1645.79 1543.92 1643.05 1540.23 Q1640.31 1536.5 1635.63 1536.5 M1635.63 1531.54 Q1643.27 1531.54 1647.63 1536.5 Q1651.99 1541.47 1651.99 1550.25 Q1651.99 1559 1647.63 1564 Q1643.27 1568.97 1635.63 1568.97 Q1627.96 1568.97 1623.6 1564 Q1619.27 1559 1619.27 1550.25 Q1619.27 1541.47 1623.6 1536.5 Q1627.96 1531.54 1635.63 1531.54 Z" fill="#000000" fill-rule="nonzero" fill-opacity="1"></path><path clip-path="url(#clip940)" d="M1691.33 1546.53 L1691.33 1568.04 L1685.48 1568.04 L1685.48 1546.72 Q1685.48 1541.66 1683.5 1539.14 Q1681.53 1536.63 1677.58 1536.63 Q1672.84 1536.63 1670.1 1539.65 Q1667.37 1542.68 1667.37 1547.9 L1667.37 1568.04 L1661.48 1568.04 L1661.48 1532.4 L1667.37 1532.4 L1667.37 1537.93 Q1669.47 1534.72 1672.3 1533.13 Q1675.17 1531.54 1678.89 1531.54 Q1685.03 1531.54 1688.18 1535.36 Q1691.33 1539.14 1691.33 1546.53 Z" fill="#000000" fill-rule="nonzero" fill-opacity="1"></path><path clip-path="url(#clip940)" d="M1726.47 1537.81 L1726.47 1518.52 L1732.33 1518.52 L1732.33 1568.04 L1726.47 1568.04 L1726.47 1562.7 Q1724.63 1565.88 1721.79 1567.44 Q1718.99 1568.97 1715.05 1568.97 Q1708.59 1568.97 1704.51 1563.81 Q1700.47 1558.65 1700.47 1550.25 Q1700.47 1541.85 1704.51 1536.69 Q1708.59 1531.54 1715.05 1531.54 Q1718.99 1531.54 1721.79 1533.1 Q1724.63 1534.62 1726.47 1537.81 M1706.52 1550.25 Q1706.52 1556.71 1709.16 1560.4 Q1711.83 1564.07 1716.48 1564.07 Q1721.13 1564.07 1723.8 1560.4 Q1726.47 1556.71 1726.47 1550.25 Q1726.47 1543.79 1723.8 1540.13 Q1721.13 1536.44 1716.48 1536.44 Q1711.83 1536.44 1709.16 1540.13 Q1706.52 1543.79 1706.52 1550.25 Z" fill="#000000" fill-rule="nonzero" fill-opacity="1"></path><path clip-path="url(#clip940)" d="M1767.12 1533.45 L1767.12 1538.98 Q1764.64 1537.71 1761.96 1537.07 Q1759.29 1536.44 1756.42 1536.44 Q1752.06 1536.44 1749.87 1537.77 Q1747.7 1539.11 1747.7 1541.79 Q1747.7 1543.82 1749.26 1545 Q1750.82 1546.15 1755.53 1547.2 L1757.54 1547.64 Q1763.78 1548.98 1766.39 1551.43 Q1769.03 1553.85 1769.03 1558.21 Q1769.03 1563.17 1765.08 1566.07 Q1761.17 1568.97 1754.29 1568.97 Q1751.43 1568.97 1748.31 1568.39 Q1745.22 1567.85 1741.78 1566.74 L1741.78 1560.69 Q1745.03 1562.38 1748.18 1563.24 Q1751.33 1564.07 1754.42 1564.07 Q1758.56 1564.07 1760.78 1562.66 Q1763.01 1561.23 1763.01 1558.65 Q1763.01 1556.27 1761.39 1554.99 Q1759.8 1553.72 1754.35 1552.54 L1752.32 1552.07 Q1746.87 1550.92 1744.46 1548.56 Q1742.04 1546.18 1742.04 1542.04 Q1742.04 1537.01 1745.6 1534.27 Q1749.17 1531.54 1755.72 1531.54 Q1758.97 1531.54 1761.83 1532.01 Q1764.7 1532.49 1767.12 1533.45 Z" fill="#000000" fill-rule="nonzero" fill-opacity="1"></path><polyline clip-path="url(#clip940)" style="stroke:#000000; stroke-linecap:round; stroke-linejoin:round; stroke-width:4; stroke-opacity:1; fill:none" points="199.283,1423.18 199.283,123.472 "></polyline>
<polyline clip-path="url(#clip940)" style="stroke:#000000; stroke-linecap:round; stroke-linejoin:round; stroke-width:4; stroke-opacity:1; fill:none" points="199.283,1423.18 218.181,1423.18 "></polyline>
<polyline clip-path="url(#clip940)" style="stroke:#000000; stroke-linecap:round; stroke-linejoin:round; stroke-width:4; stroke-opacity:1; fill:none" points="199.283,1112.54 218.181,1112.54 "></polyline>
<polyline clip-path="url(#clip940)" style="stroke:#000000; stroke-linecap:round; stroke-linejoin:round; stroke-width:4; stroke-opacity:1; fill:none" points="199.283,801.905 218.181,801.905 "></polyline>
<polyline clip-path="url(#clip940)" style="stroke:#000000; stroke-linecap:round; stroke-linejoin:round; stroke-width:4; stroke-opacity:1; fill:none" points="199.283,491.267 218.181,491.267 "></polyline>
<polyline clip-path="url(#clip940)" style="stroke:#000000; stroke-linecap:round; stroke-linejoin:round; stroke-width:4; stroke-opacity:1; fill:none" points="199.283,180.629 218.181,180.629 "></polyline>
<path clip-path="url(#clip940)" d="M151.339 1408.98 Q147.728 1408.98 145.899 1412.54 Q144.093 1416.08 144.093 1423.21 Q144.093 1430.32 145.899 1433.89 Q147.728 1437.43 151.339 1437.43 Q154.973 1437.43 156.779 1433.89 Q158.607 1430.32 158.607 1423.21 Q158.607 1416.08 156.779 1412.54 Q154.973 1408.98 151.339 1408.98 M151.339 1405.27 Q157.149 1405.27 160.205 1409.88 Q163.283 1414.46 163.283 1423.21 Q163.283 1431.94 160.205 1436.55 Q157.149 1441.13 151.339 1441.13 Q145.529 1441.13 142.45 1436.55 Q139.394 1431.94 139.394 1423.21 Q139.394 1414.46 142.45 1409.88 Q145.529 1405.27 151.339 1405.27 Z" fill="#000000" fill-rule="nonzero" fill-opacity="1"></path><path clip-path="url(#clip940)" d="M85.0429 1125.89 L101.362 1125.89 L101.362 1129.82 L79.4179 1129.82 L79.4179 1125.89 Q82.0799 1123.13 86.6632 1118.5 Q91.2697 1113.85 92.4502 1112.51 Q94.6956 1109.98 95.5752 1108.25 Q96.478 1106.49 96.478 1104.8 Q96.478 1102.04 94.5336 1100.31 Q92.6123 1098.57 89.5104 1098.57 Q87.3114 1098.57 84.8577 1099.34 Q82.4271 1100.1 79.6494 1101.65 L79.6494 1096.93 Q82.4734 1095.79 84.9271 1095.22 Q87.3808 1094.64 89.4178 1094.64 Q94.7882 1094.64 97.9826 1097.32 Q101.177 1100.01 101.177 1104.5 Q101.177 1106.63 100.367 1108.55 Q99.5798 1110.45 97.4734 1113.04 Q96.8947 1113.71 93.7928 1116.93 Q90.691 1120.12 85.0429 1125.89 Z" fill="#000000" fill-rule="nonzero" fill-opacity="1"></path><path clip-path="url(#clip940)" d="M111.223 1095.26 L129.58 1095.26 L129.58 1099.2 L115.506 1099.2 L115.506 1107.67 Q116.524 1107.32 117.543 1107.16 Q118.561 1106.98 119.58 1106.98 Q125.367 1106.98 128.746 1110.15 Q132.126 1113.32 132.126 1118.73 Q132.126 1124.31 128.654 1127.41 Q125.182 1130.49 118.862 1130.49 Q116.686 1130.49 114.418 1130.12 Q112.172 1129.75 109.765 1129.01 L109.765 1124.31 Q111.848 1125.45 114.07 1126 Q116.293 1126.56 118.77 1126.56 Q122.774 1126.56 125.112 1124.45 Q127.45 1122.35 127.45 1118.73 Q127.45 1115.12 125.112 1113.02 Q122.774 1110.91 118.77 1110.91 Q116.895 1110.91 115.02 1111.33 Q113.168 1111.74 111.223 1112.62 L111.223 1095.26 Z" fill="#000000" fill-rule="nonzero" fill-opacity="1"></path><path clip-path="url(#clip940)" d="M151.339 1098.34 Q147.728 1098.34 145.899 1101.91 Q144.093 1105.45 144.093 1112.58 Q144.093 1119.68 145.899 1123.25 Q147.728 1126.79 151.339 1126.79 Q154.973 1126.79 156.779 1123.25 Q158.607 1119.68 158.607 1112.58 Q158.607 1105.45 156.779 1101.91 Q154.973 1098.34 151.339 1098.34 M151.339 1094.64 Q157.149 1094.64 160.205 1099.24 Q163.283 1103.83 163.283 1112.58 Q163.283 1121.3 160.205 1125.91 Q157.149 1130.49 151.339 1130.49 Q145.529 1130.49 142.45 1125.91 Q139.394 1121.3 139.394 1112.58 Q139.394 1103.83 142.45 1099.24 Q145.529 1094.64 151.339 1094.64 Z" fill="#000000" fill-rule="nonzero" fill-opacity="1"></path><path clip-path="url(#clip940)" d="M81.0614 784.625 L99.4178 784.625 L99.4178 788.56 L85.3438 788.56 L85.3438 797.032 Q86.3623 796.685 87.3808 796.523 Q88.3993 796.338 89.4178 796.338 Q95.2049 796.338 98.5845 799.509 Q101.964 802.68 101.964 808.097 Q101.964 813.675 98.4919 816.777 Q95.0197 819.856 88.7003 819.856 Q86.5243 819.856 84.2558 819.486 Q82.0105 819.115 79.6031 818.374 L79.6031 813.675 Q81.6864 814.81 83.9086 815.365 Q86.1308 815.921 88.6077 815.921 Q92.6123 815.921 94.9502 813.814 Q97.2882 811.708 97.2882 808.097 Q97.2882 804.486 94.9502 802.379 Q92.6123 800.273 88.6077 800.273 Q86.7327 800.273 84.8577 800.689 Q83.0058 801.106 81.0614 801.986 L81.0614 784.625 Z" fill="#000000" fill-rule="nonzero" fill-opacity="1"></path><path clip-path="url(#clip940)" d="M121.177 787.703 Q117.566 787.703 115.737 791.268 Q113.932 794.81 113.932 801.939 Q113.932 809.046 115.737 812.611 Q117.566 816.152 121.177 816.152 Q124.811 816.152 126.617 812.611 Q128.445 809.046 128.445 801.939 Q128.445 794.81 126.617 791.268 Q124.811 787.703 121.177 787.703 M121.177 784 Q126.987 784 130.043 788.606 Q133.121 793.189 133.121 801.939 Q133.121 810.666 130.043 815.273 Q126.987 819.856 121.177 819.856 Q115.367 819.856 112.288 815.273 Q109.233 810.666 109.233 801.939 Q109.233 793.189 112.288 788.606 Q115.367 784 121.177 784 Z" fill="#000000" fill-rule="nonzero" fill-opacity="1"></path><path clip-path="url(#clip940)" d="M151.339 787.703 Q147.728 787.703 145.899 791.268 Q144.093 794.81 144.093 801.939 Q144.093 809.046 145.899 812.611 Q147.728 816.152 151.339 816.152 Q154.973 816.152 156.779 812.611 Q158.607 809.046 158.607 801.939 Q158.607 794.81 156.779 791.268 Q154.973 787.703 151.339 787.703 M151.339 784 Q157.149 784 160.205 788.606 Q163.283 793.189 163.283 801.939 Q163.283 810.666 160.205 815.273 Q157.149 819.856 151.339 819.856 Q145.529 819.856 142.45 815.273 Q139.394 810.666 139.394 801.939 Q139.394 793.189 142.45 788.606 Q145.529 784 151.339 784 Z" fill="#000000" fill-rule="nonzero" fill-opacity="1"></path><path clip-path="url(#clip940)" d="M79.8346 473.987 L102.057 473.987 L102.057 475.978 L89.5104 508.547 L84.6262 508.547 L96.4317 477.922 L79.8346 477.922 L79.8346 473.987 Z" fill="#000000" fill-rule="nonzero" fill-opacity="1"></path><path clip-path="url(#clip940)" d="M111.223 473.987 L129.58 473.987 L129.58 477.922 L115.506 477.922 L115.506 486.394 Q116.524 486.047 117.543 485.885 Q118.561 485.7 119.58 485.7 Q125.367 485.7 128.746 488.871 Q132.126 492.043 132.126 497.459 Q132.126 503.038 128.654 506.14 Q125.182 509.218 118.862 509.218 Q116.686 509.218 114.418 508.848 Q112.172 508.478 109.765 507.737 L109.765 503.038 Q111.848 504.172 114.07 504.728 Q116.293 505.283 118.77 505.283 Q122.774 505.283 125.112 503.177 Q127.45 501.07 127.45 497.459 Q127.45 493.848 125.112 491.742 Q122.774 489.635 118.77 489.635 Q116.895 489.635 115.02 490.052 Q113.168 490.468 111.223 491.348 L111.223 473.987 Z" fill="#000000" fill-rule="nonzero" fill-opacity="1"></path><path clip-path="url(#clip940)" d="M151.339 477.066 Q147.728 477.066 145.899 480.631 Q144.093 484.172 144.093 491.302 Q144.093 498.408 145.899 501.973 Q147.728 505.515 151.339 505.515 Q154.973 505.515 156.779 501.973 Q158.607 498.408 158.607 491.302 Q158.607 484.172 156.779 480.631 Q154.973 477.066 151.339 477.066 M151.339 473.362 Q157.149 473.362 160.205 477.969 Q163.283 482.552 163.283 491.302 Q163.283 500.029 160.205 504.635 Q157.149 509.218 151.339 509.218 Q145.529 509.218 142.45 504.635 Q139.394 500.029 139.394 491.302 Q139.394 482.552 142.45 477.969 Q145.529 473.362 151.339 473.362 Z" fill="#000000" fill-rule="nonzero" fill-opacity="1"></path><path clip-path="url(#clip940)" d="M51.6634 193.974 L59.3023 193.974 L59.3023 167.609 L50.9921 169.275 L50.9921 165.016 L59.256 163.349 L63.9319 163.349 L63.9319 193.974 L71.5707 193.974 L71.5707 197.909 L51.6634 197.909 L51.6634 193.974 Z" fill="#000000" fill-rule="nonzero" fill-opacity="1"></path><path clip-path="url(#clip940)" d="M91.0151 166.428 Q87.404 166.428 85.5753 169.993 Q83.7697 173.535 83.7697 180.664 Q83.7697 187.771 85.5753 191.335 Q87.404 194.877 91.0151 194.877 Q94.6493 194.877 96.4548 191.335 Q98.2835 187.771 98.2835 180.664 Q98.2835 173.535 96.4548 169.993 Q94.6493 166.428 91.0151 166.428 M91.0151 162.724 Q96.8252 162.724 99.8808 167.331 Q102.959 171.914 102.959 180.664 Q102.959 189.391 99.8808 193.997 Q96.8252 198.581 91.0151 198.581 Q85.2049 198.581 82.1262 193.997 Q79.0707 189.391 79.0707 180.664 Q79.0707 171.914 82.1262 167.331 Q85.2049 162.724 91.0151 162.724 Z" fill="#000000" fill-rule="nonzero" fill-opacity="1"></path><path clip-path="url(#clip940)" d="M121.177 166.428 Q117.566 166.428 115.737 169.993 Q113.932 173.535 113.932 180.664 Q113.932 187.771 115.737 191.335 Q117.566 194.877 121.177 194.877 Q124.811 194.877 126.617 191.335 Q128.445 187.771 128.445 180.664 Q128.445 173.535 126.617 169.993 Q124.811 166.428 121.177 166.428 M121.177 162.724 Q126.987 162.724 130.043 167.331 Q133.121 171.914 133.121 180.664 Q133.121 189.391 130.043 193.997 Q126.987 198.581 121.177 198.581 Q115.367 198.581 112.288 193.997 Q109.233 189.391 109.233 180.664 Q109.233 171.914 112.288 167.331 Q115.367 162.724 121.177 162.724 Z" fill="#000000" fill-rule="nonzero" fill-opacity="1"></path><path clip-path="url(#clip940)" d="M151.339 166.428 Q147.728 166.428 145.899 169.993 Q144.093 173.535 144.093 180.664 Q144.093 187.771 145.899 191.335 Q147.728 194.877 151.339 194.877 Q154.973 194.877 156.779 191.335 Q158.607 187.771 158.607 180.664 Q158.607 173.535 156.779 169.993 Q154.973 166.428 151.339 166.428 M151.339 162.724 Q157.149 162.724 160.205 167.331 Q163.283 171.914 163.283 180.664 Q163.283 189.391 160.205 193.997 Q157.149 198.581 151.339 198.581 Q145.529 198.581 142.45 193.997 Q139.394 189.391 139.394 180.664 Q139.394 171.914 142.45 167.331 Q145.529 162.724 151.339 162.724 Z" fill="#000000" fill-rule="nonzero" fill-opacity="1"></path><path clip-path="url(#clip940)" d="M579.993 12.096 L591.012 12.096 L617.829 62.6918 L617.829 12.096 L625.768 12.096 L625.768 72.576 L614.75 72.576 L587.933 21.9802 L587.933 72.576 L579.993 72.576 L579.993 12.096 Z" fill="#000000" fill-rule="nonzero" fill-opacity="1"></path><path clip-path="url(#clip940)" d="M642.053 12.096 L650.236 12.096 L650.236 72.576 L642.053 72.576 L642.053 12.096 Z" fill="#000000" fill-rule="nonzero" fill-opacity="1"></path><path clip-path="url(#clip940)" d="M695.201 44.2197 Q697.834 45.1109 700.305 48.0275 Q702.817 50.9442 705.328 56.0483 L713.633 72.576 L704.842 72.576 L697.105 57.061 Q694.107 50.9847 691.272 48.9997 Q688.476 47.0148 683.615 47.0148 L674.703 47.0148 L674.703 72.576 L666.52 72.576 L666.52 12.096 L684.993 12.096 Q695.363 12.096 700.467 16.4305 Q705.571 20.7649 705.571 29.5149 Q705.571 35.2267 702.898 38.994 Q700.265 42.7613 695.201 44.2197 M674.703 18.8205 L674.703 40.2903 L684.993 40.2903 Q690.907 40.2903 693.905 37.5762 Q696.943 34.8216 696.943 29.5149 Q696.943 24.2082 693.905 21.5346 Q690.907 18.8205 684.993 18.8205 L674.703 18.8205 Z" fill="#000000" fill-rule="nonzero" fill-opacity="1"></path><path clip-path="url(#clip940)" d="M765.322 16.7545 L765.322 25.383 Q761.19 21.5346 756.491 19.6307 Q751.833 17.7268 746.566 17.7268 Q736.196 17.7268 730.687 24.0867 Q725.178 30.4061 725.178 42.3968 Q725.178 54.3469 730.687 60.7069 Q736.196 67.0263 746.566 67.0263 Q751.833 67.0263 756.491 65.1223 Q761.19 63.2184 765.322 59.3701 L765.322 67.9175 Q761.028 70.8341 756.208 72.2924 Q751.427 73.7508 746.08 73.7508 Q732.348 73.7508 724.448 65.3654 Q716.549 56.9395 716.549 42.3968 Q716.549 27.8135 724.448 19.4281 Q732.348 11.0023 746.08 11.0023 Q751.508 11.0023 756.289 12.4606 Q761.109 13.8784 765.322 16.7545 Z" fill="#000000" fill-rule="nonzero" fill-opacity="1"></path><path clip-path="url(#clip940)" d="M798.256 49.7694 Q789.222 49.7694 785.739 51.8354 Q782.255 53.9013 782.255 58.8839 Q782.255 62.8538 784.847 65.2034 Q787.48 67.5124 791.977 67.5124 Q798.175 67.5124 801.902 63.1374 Q805.669 58.7219 805.669 51.4303 L805.669 49.7694 L798.256 49.7694 M813.123 46.6907 L813.123 72.576 L805.669 72.576 L805.669 65.6895 Q803.117 69.8214 799.309 71.8063 Q795.501 73.7508 789.992 73.7508 Q783.025 73.7508 778.893 69.8619 Q774.801 65.9325 774.801 59.3701 Q774.801 51.7138 779.905 47.825 Q785.05 43.9361 795.218 43.9361 L805.669 43.9361 L805.669 43.2069 Q805.669 38.0623 802.266 35.2672 Q798.904 32.4315 792.787 32.4315 Q788.898 32.4315 785.212 33.3632 Q781.526 34.295 778.123 36.1584 L778.123 29.2718 Q782.214 27.692 786.063 26.9223 Q789.911 26.1121 793.557 26.1121 Q803.401 26.1121 808.262 31.2163 Q813.123 36.3204 813.123 46.6907 Z" fill="#000000" fill-rule="nonzero" fill-opacity="1"></path><path clip-path="url(#clip940)" d="M863.8 35.9153 Q866.595 30.8922 870.484 28.5022 Q874.372 26.1121 879.639 26.1121 Q886.728 26.1121 890.576 31.0947 Q894.424 36.0368 894.424 45.1919 L894.424 72.576 L886.93 72.576 L886.93 45.4349 Q886.93 38.913 884.621 35.7533 Q882.312 32.5936 877.573 32.5936 Q871.78 32.5936 868.418 36.4419 Q865.055 40.2903 865.055 46.9338 L865.055 72.576 L857.561 72.576 L857.561 45.4349 Q857.561 38.8725 855.252 35.7533 Q852.943 32.5936 848.123 32.5936 Q842.411 32.5936 839.049 36.4824 Q835.686 40.3308 835.686 46.9338 L835.686 72.576 L828.192 72.576 L828.192 27.2059 L835.686 27.2059 L835.686 34.2544 Q838.238 30.082 841.803 28.0971 Q845.368 26.1121 850.27 26.1121 Q855.212 26.1121 858.655 28.6237 Q862.139 31.1352 863.8 35.9153 Z" fill="#000000" fill-rule="nonzero" fill-opacity="1"></path><path clip-path="url(#clip940)" d="M959.198 19.2256 L938.539 51.5113 L959.198 51.5113 L959.198 19.2256 M957.051 12.096 L967.341 12.096 L967.341 51.5113 L975.969 51.5113 L975.969 58.3168 L967.341 58.3168 L967.341 72.576 L959.198 72.576 L959.198 58.3168 L931.895 58.3168 L931.895 50.4176 L957.051 12.096 Z" fill="#000000" fill-rule="nonzero" fill-opacity="1"></path><path clip-path="url(#clip940)" d="M1011.98 19.2256 L991.322 51.5113 L1011.98 51.5113 L1011.98 19.2256 M1009.83 12.096 L1020.12 12.096 L1020.12 51.5113 L1028.75 51.5113 L1028.75 58.3168 L1020.12 58.3168 L1020.12 72.576 L1011.98 72.576 L1011.98 58.3168 L984.679 58.3168 L984.679 50.4176 L1009.83 12.096 Z" fill="#000000" fill-rule="nonzero" fill-opacity="1"></path><path clip-path="url(#clip940)" d="M1064.76 19.2256 L1044.11 51.5113 L1064.76 51.5113 L1064.76 19.2256 M1062.62 12.096 L1072.91 12.096 L1072.91 51.5113 L1081.54 51.5113 L1081.54 58.3168 L1072.91 58.3168 L1072.91 72.576 L1064.76 72.576 L1064.76 58.3168 L1037.46 58.3168 L1037.46 50.4176 L1062.62 12.096 Z" fill="#000000" fill-rule="nonzero" fill-opacity="1"></path><path clip-path="url(#clip940)" d="M1155.71 35.9153 Q1158.5 30.8922 1162.39 28.5022 Q1166.28 26.1121 1171.55 26.1121 Q1178.64 26.1121 1182.48 31.0947 Q1186.33 36.0368 1186.33 45.1919 L1186.33 72.576 L1178.84 72.576 L1178.84 45.4349 Q1178.84 38.913 1176.53 35.7533 Q1174.22 32.5936 1169.48 32.5936 Q1163.69 32.5936 1160.33 36.4419 Q1156.96 40.2903 1156.96 46.9338 L1156.96 72.576 L1149.47 72.576 L1149.47 45.4349 Q1149.47 38.8725 1147.16 35.7533 Q1144.85 32.5936 1140.03 32.5936 Q1134.32 32.5936 1130.96 36.4824 Q1127.59 40.3308 1127.59 46.9338 L1127.59 72.576 L1120.1 72.576 L1120.1 27.2059 L1127.59 27.2059 L1127.59 34.2544 Q1130.15 30.082 1133.71 28.0971 Q1137.28 26.1121 1142.18 26.1121 Q1147.12 26.1121 1150.56 28.6237 Q1154.05 31.1352 1155.71 35.9153 Z" fill="#000000" fill-rule="nonzero" fill-opacity="1"></path><path clip-path="url(#clip940)" d="M1221.82 49.7694 Q1212.78 49.7694 1209.3 51.8354 Q1205.82 53.9013 1205.82 58.8839 Q1205.82 62.8538 1208.41 65.2034 Q1211.04 67.5124 1215.54 67.5124 Q1221.74 67.5124 1225.46 63.1374 Q1229.23 58.7219 1229.23 51.4303 L1229.23 49.7694 L1221.82 49.7694 M1236.69 46.6907 L1236.69 72.576 L1229.23 72.576 L1229.23 65.6895 Q1226.68 69.8214 1222.87 71.8063 Q1219.06 73.7508 1213.55 73.7508 Q1206.59 73.7508 1202.46 69.8619 Q1198.36 65.9325 1198.36 59.3701 Q1198.36 51.7138 1203.47 47.825 Q1208.61 43.9361 1218.78 43.9361 L1229.23 43.9361 L1229.23 43.2069 Q1229.23 38.0623 1225.83 35.2672 Q1222.47 32.4315 1216.35 32.4315 Q1212.46 32.4315 1208.77 33.3632 Q1205.09 34.295 1201.69 36.1584 L1201.69 29.2718 Q1205.78 27.692 1209.63 26.9223 Q1213.47 26.1121 1217.12 26.1121 Q1226.96 26.1121 1231.82 31.2163 Q1236.69 36.3204 1236.69 46.6907 Z" fill="#000000" fill-rule="nonzero" fill-opacity="1"></path><path clip-path="url(#clip940)" d="M1259.41 14.324 L1259.41 27.2059 L1274.76 27.2059 L1274.76 32.9987 L1259.41 32.9987 L1259.41 57.6282 Q1259.41 63.1779 1260.91 64.7578 Q1262.45 66.3376 1267.11 66.3376 L1274.76 66.3376 L1274.76 72.576 L1267.11 72.576 Q1258.48 72.576 1255.2 69.3758 Q1251.92 66.1351 1251.92 57.6282 L1251.92 32.9987 L1246.45 32.9987 L1246.45 27.2059 L1251.92 27.2059 L1251.92 14.324 L1259.41 14.324 Z" fill="#000000" fill-rule="nonzero" fill-opacity="1"></path><path clip-path="url(#clip940)" d="M1317.22 28.9478 L1317.22 35.9153 Q1314.06 34.1734 1310.86 33.3227 Q1307.7 32.4315 1304.46 32.4315 Q1297.21 32.4315 1293.2 37.0496 Q1289.18 41.6271 1289.18 49.9314 Q1289.18 58.2358 1293.2 62.8538 Q1297.21 67.4314 1304.46 67.4314 Q1307.7 67.4314 1310.86 66.5807 Q1314.06 65.6895 1317.22 63.9476 L1317.22 70.8341 Q1314.1 72.2924 1310.74 73.0216 Q1307.41 73.7508 1303.65 73.7508 Q1293.4 73.7508 1287.36 67.3098 Q1281.33 60.8689 1281.33 49.9314 Q1281.33 38.832 1287.4 32.472 Q1293.52 26.1121 1304.13 26.1121 Q1307.58 26.1121 1310.86 26.8413 Q1314.14 27.5299 1317.22 28.9478 Z" fill="#000000" fill-rule="nonzero" fill-opacity="1"></path><path clip-path="url(#clip940)" d="M1367.89 45.1919 L1367.89 72.576 L1360.44 72.576 L1360.44 45.4349 Q1360.44 38.994 1357.93 35.7938 Q1355.42 32.5936 1350.39 32.5936 Q1344.36 32.5936 1340.87 36.4419 Q1337.39 40.2903 1337.39 46.9338 L1337.39 72.576 L1329.9 72.576 L1329.9 9.54393 L1337.39 9.54393 L1337.39 34.2544 Q1340.06 30.163 1343.67 28.1376 Q1347.32 26.1121 1352.06 26.1121 Q1359.87 26.1121 1363.88 30.9732 Q1367.89 35.7938 1367.89 45.1919 Z" fill="#000000" fill-rule="nonzero" fill-opacity="1"></path><path clip-path="url(#clip940)" d="M1421.57 48.0275 L1421.57 51.6733 L1387.3 51.6733 Q1387.78 59.3701 1391.92 63.421 Q1396.09 67.4314 1403.5 67.4314 Q1407.8 67.4314 1411.81 66.3781 Q1415.86 65.3249 1419.83 63.2184 L1419.83 70.267 Q1415.82 71.9684 1411.6 72.8596 Q1407.39 73.7508 1403.06 73.7508 Q1392.2 73.7508 1385.84 67.4314 Q1379.52 61.1119 1379.52 50.3365 Q1379.52 39.1965 1385.52 32.6746 Q1391.55 26.1121 1401.76 26.1121 Q1410.91 26.1121 1416.22 32.0264 Q1421.57 37.9003 1421.57 48.0275 M1414.11 45.84 Q1414.03 39.7232 1410.67 36.0774 Q1407.35 32.4315 1401.84 32.4315 Q1395.6 32.4315 1391.83 35.9558 Q1388.11 39.4801 1387.54 45.8805 L1414.11 45.84 Z" fill="#000000" fill-rule="nonzero" fill-opacity="1"></path><path clip-path="url(#clip940)" d="M1463.66 34.0924 L1463.66 9.54393 L1471.11 9.54393 L1471.11 72.576 L1463.66 72.576 L1463.66 65.7705 Q1461.31 69.8214 1457.7 71.8063 Q1454.14 73.7508 1449.11 73.7508 Q1440.89 73.7508 1435.71 67.1883 Q1430.56 60.6258 1430.56 49.9314 Q1430.56 39.2371 1435.71 32.6746 Q1440.89 26.1121 1449.11 26.1121 Q1454.14 26.1121 1457.7 28.0971 Q1461.31 30.0415 1463.66 34.0924 M1438.26 49.9314 Q1438.26 58.1548 1441.62 62.8538 Q1445.02 67.5124 1450.94 67.5124 Q1456.85 67.5124 1460.25 62.8538 Q1463.66 58.1548 1463.66 49.9314 Q1463.66 41.7081 1460.25 37.0496 Q1456.85 32.3505 1450.94 32.3505 Q1445.02 32.3505 1441.62 37.0496 Q1438.26 41.7081 1438.26 49.9314 Z" fill="#000000" fill-rule="nonzero" fill-opacity="1"></path><path clip-path="url(#clip940)" d="M1520.21 14.324 L1520.21 27.2059 L1535.56 27.2059 L1535.56 32.9987 L1520.21 32.9987 L1520.21 57.6282 Q1520.21 63.1779 1521.71 64.7578 Q1523.25 66.3376 1527.9 66.3376 L1535.56 66.3376 L1535.56 72.576 L1527.9 72.576 Q1519.28 72.576 1516 69.3758 Q1512.71 66.1351 1512.71 57.6282 L1512.71 32.9987 L1507.25 32.9987 L1507.25 27.2059 L1512.71 27.2059 L1512.71 14.324 L1520.21 14.324 Z" fill="#000000" fill-rule="nonzero" fill-opacity="1"></path><path clip-path="url(#clip940)" d="M1562.95 32.4315 Q1556.95 32.4315 1553.47 37.1306 Q1549.98 41.7891 1549.98 49.9314 Q1549.98 58.0738 1553.43 62.7728 Q1556.91 67.4314 1562.95 67.4314 Q1568.9 67.4314 1572.38 62.7323 Q1575.87 58.0333 1575.87 49.9314 Q1575.87 41.8701 1572.38 37.1711 Q1568.9 32.4315 1562.95 32.4315 M1562.95 26.1121 Q1572.67 26.1121 1578.22 32.4315 Q1583.77 38.7509 1583.77 49.9314 Q1583.77 61.0714 1578.22 67.4314 Q1572.67 73.7508 1562.95 73.7508 Q1553.18 73.7508 1547.63 67.4314 Q1542.12 61.0714 1542.12 49.9314 Q1542.12 38.7509 1547.63 32.4315 Q1553.18 26.1121 1562.95 26.1121 Z" fill="#000000" fill-rule="nonzero" fill-opacity="1"></path><path clip-path="url(#clip940)" d="M1622.82 12.096 L1635.01 12.096 L1650.44 53.2532 L1665.96 12.096 L1678.15 12.096 L1678.15 72.576 L1670.17 72.576 L1670.17 19.4686 L1654.58 60.9499 L1646.35 60.9499 L1630.76 19.4686 L1630.76 72.576 L1622.82 72.576 L1622.82 12.096 Z" fill="#000000" fill-rule="nonzero" fill-opacity="1"></path><path clip-path="url(#clip940)" d="M1694.4 12.096 L1702.58 12.096 L1702.58 72.576 L1694.4 72.576 L1694.4 12.096 Z" fill="#000000" fill-rule="nonzero" fill-opacity="1"></path><path clip-path="url(#clip940)" d="M1747.54 44.2197 Q1750.18 45.1109 1752.65 48.0275 Q1755.16 50.9442 1757.67 56.0483 L1765.98 72.576 L1757.19 72.576 L1749.45 57.061 Q1746.45 50.9847 1743.62 48.9997 Q1740.82 47.0148 1735.96 47.0148 L1727.05 47.0148 L1727.05 72.576 L1718.86 72.576 L1718.86 12.096 L1737.34 12.096 Q1747.71 12.096 1752.81 16.4305 Q1757.92 20.7649 1757.92 29.5149 Q1757.92 35.2267 1755.24 38.994 Q1752.61 42.7613 1747.54 44.2197 M1727.05 18.8205 L1727.05 40.2903 L1737.34 40.2903 Q1743.25 40.2903 1746.25 37.5762 Q1749.29 34.8216 1749.29 29.5149 Q1749.29 24.2082 1746.25 21.5346 Q1743.25 18.8205 1737.34 18.8205 L1727.05 18.8205 Z" fill="#000000" fill-rule="nonzero" fill-opacity="1"></path><path clip-path="url(#clip940)" d="M1776.51 12.096 L1784.69 12.096 L1784.69 72.576 L1776.51 72.576 L1776.51 12.096 Z" fill="#000000" fill-rule="nonzero" fill-opacity="1"></path><path clip-path="url(#clip940)" d="M1826.01 12.096 L1864.9 12.096 L1864.9 15.5798 L1842.94 72.576 L1834.4 72.576 L1855.06 18.9825 L1826.01 18.9825 L1826.01 12.096 Z" fill="#000000" fill-rule="nonzero" fill-opacity="1"></path><path clip-path="url(#clip940)" d="M1878.79 12.096 L1917.68 12.096 L1917.68 15.5798 L1895.73 72.576 L1887.18 72.576 L1907.84 18.9825 L1878.79 18.9825 L1878.79 12.096 Z" fill="#000000" fill-rule="nonzero" fill-opacity="1"></path><path clip-path="url(#clip940)" d="M1951.14 17.4837 Q1944.82 17.4837 1941.62 23.7221 Q1938.46 29.92 1938.46 42.3968 Q1938.46 54.833 1941.62 61.0714 Q1944.82 67.2693 1951.14 67.2693 Q1957.5 67.2693 1960.66 61.0714 Q1963.86 54.833 1963.86 42.3968 Q1963.86 29.92 1960.66 23.7221 Q1957.5 17.4837 1951.14 17.4837 M1951.14 11.0023 Q1961.31 11.0023 1966.66 19.0636 Q1972.05 27.0843 1972.05 42.3968 Q1972.05 57.6687 1966.66 65.73 Q1961.31 73.7508 1951.14 73.7508 Q1940.98 73.7508 1935.59 65.73 Q1930.24 57.6687 1930.24 42.3968 Q1930.24 27.0843 1935.59 19.0636 Q1940.98 11.0023 1951.14 11.0023 Z" fill="#000000" fill-rule="nonzero" fill-opacity="1"></path><path clip-path="url(#clip942)" d="M199.283 1363.54 L199.283 1423.18 L294.993 1423.18 L294.993 1363.54 L199.283 1363.54 L199.283 1363.54  Z" fill="#009af9" fill-rule="evenodd" fill-opacity="1"></path>
<polyline clip-path="url(#clip942)" style="stroke:#000000; stroke-linecap:round; stroke-linejoin:round; stroke-width:4; stroke-opacity:1; fill:none" points="199.283,1363.54 199.283,1423.18 294.993,1423.18 294.993,1363.54 199.283,1363.54 "></polyline>
<path clip-path="url(#clip942)" d="M294.993 1254.19 L294.993 1423.18 L390.703 1423.18 L390.703 1254.19 L294.993 1254.19 L294.993 1254.19  Z" fill="#009af9" fill-rule="evenodd" fill-opacity="1"></path>
<polyline clip-path="url(#clip942)" style="stroke:#000000; stroke-linecap:round; stroke-linejoin:round; stroke-width:4; stroke-opacity:1; fill:none" points="294.993,1254.19 294.993,1423.18 390.703,1423.18 390.703,1254.19 294.993,1254.19 "></polyline>
<path clip-path="url(#clip942)" d="M390.703 1126.21 L390.703 1423.18 L486.413 1423.18 L486.413 1126.21 L390.703 1126.21 L390.703 1126.21  Z" fill="#009af9" fill-rule="evenodd" fill-opacity="1"></path>
<polyline clip-path="url(#clip942)" style="stroke:#000000; stroke-linecap:round; stroke-linejoin:round; stroke-width:4; stroke-opacity:1; fill:none" points="390.703,1126.21 390.703,1423.18 486.413,1423.18 486.413,1126.21 390.703,1126.21 "></polyline>
<path clip-path="url(#clip942)" d="M486.413 1020.59 L486.413 1423.18 L582.123 1423.18 L582.123 1020.59 L486.413 1020.59 L486.413 1020.59  Z" fill="#009af9" fill-rule="evenodd" fill-opacity="1"></path>
<polyline clip-path="url(#clip942)" style="stroke:#000000; stroke-linecap:round; stroke-linejoin:round; stroke-width:4; stroke-opacity:1; fill:none" points="486.413,1020.59 486.413,1423.18 582.123,1423.18 582.123,1020.59 486.413,1020.59 "></polyline>
<path clip-path="url(#clip942)" d="M582.123 895.096 L582.123 1423.18 L677.833 1423.18 L677.833 895.096 L582.123 895.096 L582.123 895.096  Z" fill="#009af9" fill-rule="evenodd" fill-opacity="1"></path>
<polyline clip-path="url(#clip942)" style="stroke:#000000; stroke-linecap:round; stroke-linejoin:round; stroke-width:4; stroke-opacity:1; fill:none" points="582.123,895.096 582.123,1423.18 677.833,1423.18 677.833,895.096 582.123,895.096 "></polyline>
<path clip-path="url(#clip942)" d="M677.833 795.692 L677.833 1423.18 L773.543 1423.18 L773.543 795.692 L677.833 795.692 L677.833 795.692  Z" fill="#009af9" fill-rule="evenodd" fill-opacity="1"></path>
<polyline clip-path="url(#clip942)" style="stroke:#000000; stroke-linecap:round; stroke-linejoin:round; stroke-width:4; stroke-opacity:1; fill:none" points="677.833,795.692 677.833,1423.18 773.543,1423.18 773.543,795.692 677.833,795.692 "></polyline>
<path clip-path="url(#clip942)" d="M773.543 764.628 L773.543 1423.18 L869.252 1423.18 L869.252 764.628 L773.543 764.628 L773.543 764.628  Z" fill="#009af9" fill-rule="evenodd" fill-opacity="1"></path>
<polyline clip-path="url(#clip942)" style="stroke:#000000; stroke-linecap:round; stroke-linejoin:round; stroke-width:4; stroke-opacity:1; fill:none" points="773.543,764.628 773.543,1423.18 869.252,1423.18 869.252,764.628 773.543,764.628 "></polyline>
<path clip-path="url(#clip942)" d="M869.252 683.862 L869.252 1423.18 L964.962 1423.18 L964.962 683.862 L869.252 683.862 L869.252 683.862  Z" fill="#009af9" fill-rule="evenodd" fill-opacity="1"></path>
<polyline clip-path="url(#clip942)" style="stroke:#000000; stroke-linecap:round; stroke-linejoin:round; stroke-width:4; stroke-opacity:1; fill:none" points="869.252,683.862 869.252,1423.18 964.962,1423.18 964.962,683.862 869.252,683.862 "></polyline>
<path clip-path="url(#clip942)" d="M964.962 726.109 L964.962 1423.18 L1060.67 1423.18 L1060.67 726.109 L964.962 726.109 L964.962 726.109  Z" fill="#009af9" fill-rule="evenodd" fill-opacity="1"></path>
<polyline clip-path="url(#clip942)" style="stroke:#000000; stroke-linecap:round; stroke-linejoin:round; stroke-width:4; stroke-opacity:1; fill:none" points="964.962,726.109 964.962,1423.18 1060.67,1423.18 1060.67,726.109 964.962,726.109 "></polyline>
<path clip-path="url(#clip942)" d="M1060.67 618.007 L1060.67 1423.18 L1156.38 1423.18 L1156.38 618.007 L1060.67 618.007 L1060.67 618.007  Z" fill="#009af9" fill-rule="evenodd" fill-opacity="1"></path>
<polyline clip-path="url(#clip942)" style="stroke:#000000; stroke-linecap:round; stroke-linejoin:round; stroke-width:4; stroke-opacity:1; fill:none" points="1060.67,618.007 1060.67,1423.18 1156.38,1423.18 1156.38,618.007 1060.67,618.007 "></polyline>
<path clip-path="url(#clip942)" d="M1156.38 601.854 L1156.38 1423.18 L1252.09 1423.18 L1252.09 601.854 L1156.38 601.854 L1156.38 601.854  Z" fill="#009af9" fill-rule="evenodd" fill-opacity="1"></path>
<polyline clip-path="url(#clip942)" style="stroke:#000000; stroke-linecap:round; stroke-linejoin:round; stroke-width:4; stroke-opacity:1; fill:none" points="1156.38,601.854 1156.38,1423.18 1252.09,1423.18 1252.09,601.854 1156.38,601.854 "></polyline>
<path clip-path="url(#clip942)" d="M1252.09 630.433 L1252.09 1423.18 L1347.8 1423.18 L1347.8 630.433 L1252.09 630.433 L1252.09 630.433  Z" fill="#009af9" fill-rule="evenodd" fill-opacity="1"></path>
<polyline clip-path="url(#clip942)" style="stroke:#000000; stroke-linecap:round; stroke-linejoin:round; stroke-width:4; stroke-opacity:1; fill:none" points="1252.09,630.433 1252.09,1423.18 1347.8,1423.18 1347.8,630.433 1252.09,630.433 "></polyline>
<path clip-path="url(#clip942)" d="M1347.8 611.794 L1347.8 1423.18 L1443.51 1423.18 L1443.51 611.794 L1347.8 611.794 L1347.8 611.794  Z" fill="#009af9" fill-rule="evenodd" fill-opacity="1"></path>
<polyline clip-path="url(#clip942)" style="stroke:#000000; stroke-linecap:round; stroke-linejoin:round; stroke-width:4; stroke-opacity:1; fill:none" points="1347.8,611.794 1347.8,1423.18 1443.51,1423.18 1443.51,611.794 1347.8,611.794 "></polyline>
<path clip-path="url(#clip942)" d="M1443.51 458.961 L1443.51 1423.18 L1539.22 1423.18 L1539.22 458.961 L1443.51 458.961 L1443.51 458.961  Z" fill="#009af9" fill-rule="evenodd" fill-opacity="1"></path>
<polyline clip-path="url(#clip942)" style="stroke:#000000; stroke-linecap:round; stroke-linejoin:round; stroke-width:4; stroke-opacity:1; fill:none" points="1443.51,458.961 1443.51,1423.18 1539.22,1423.18 1539.22,458.961 1443.51,458.961 "></polyline>
<path clip-path="url(#clip942)" d="M1539.22 123.472 L1539.22 1423.18 L1634.93 1423.18 L1634.93 123.472 L1539.22 123.472 L1539.22 123.472  Z" fill="#009af9" fill-rule="evenodd" fill-opacity="1"></path>
<polyline clip-path="url(#clip942)" style="stroke:#000000; stroke-linecap:round; stroke-linejoin:round; stroke-width:4; stroke-opacity:1; fill:none" points="1539.22,123.472 1539.22,1423.18 1634.93,1423.18 1634.93,123.472 1539.22,123.472 "></polyline>
<path clip-path="url(#clip942)" d="M1634.93 695.045 L1634.93 1423.18 L1730.64 1423.18 L1730.64 695.045 L1634.93 695.045 L1634.93 695.045  Z" fill="#009af9" fill-rule="evenodd" fill-opacity="1"></path>
<polyline clip-path="url(#clip942)" style="stroke:#000000; stroke-linecap:round; stroke-linejoin:round; stroke-width:4; stroke-opacity:1; fill:none" points="1634.93,695.045 1634.93,1423.18 1730.64,1423.18 1730.64,695.045 1634.93,695.045 "></polyline>
<path clip-path="url(#clip942)" d="M1730.64 1226.86 L1730.64 1423.18 L1826.35 1423.18 L1826.35 1226.86 L1730.64 1226.86 L1730.64 1226.86  Z" fill="#009af9" fill-rule="evenodd" fill-opacity="1"></path>
<polyline clip-path="url(#clip942)" style="stroke:#000000; stroke-linecap:round; stroke-linejoin:round; stroke-width:4; stroke-opacity:1; fill:none" points="1730.64,1226.86 1730.64,1423.18 1826.35,1423.18 1826.35,1226.86 1730.64,1226.86 "></polyline>
<path clip-path="url(#clip942)" d="M1826.35 1302.65 L1826.35 1423.18 L1922.06 1423.18 L1922.06 1302.65 L1826.35 1302.65 L1826.35 1302.65  Z" fill="#009af9" fill-rule="evenodd" fill-opacity="1"></path>
<polyline clip-path="url(#clip942)" style="stroke:#000000; stroke-linecap:round; stroke-linejoin:round; stroke-width:4; stroke-opacity:1; fill:none" points="1826.35,1302.65 1826.35,1423.18 1922.06,1423.18 1922.06,1302.65 1826.35,1302.65 "></polyline>
<path clip-path="url(#clip942)" d="M1922.06 1342.41 L1922.06 1423.18 L2017.77 1423.18 L2017.77 1342.41 L1922.06 1342.41 L1922.06 1342.41  Z" fill="#009af9" fill-rule="evenodd" fill-opacity="1"></path>
<polyline clip-path="url(#clip942)" style="stroke:#000000; stroke-linecap:round; stroke-linejoin:round; stroke-width:4; stroke-opacity:1; fill:none" points="1922.06,1342.41 1922.06,1423.18 2017.77,1423.18 2017.77,1342.41 1922.06,1342.41 "></polyline>
<path clip-path="url(#clip942)" d="M2017.77 1354.84 L2017.77 1423.18 L2113.48 1423.18 L2113.48 1354.84 L2017.77 1354.84 L2017.77 1354.84  Z" fill="#009af9" fill-rule="evenodd" fill-opacity="1"></path>
<polyline clip-path="url(#clip942)" style="stroke:#000000; stroke-linecap:round; stroke-linejoin:round; stroke-width:4; stroke-opacity:1; fill:none" points="2017.77,1354.84 2017.77,1423.18 2113.48,1423.18 2113.48,1354.84 2017.77,1354.84 "></polyline>
<circle clip-path="url(#clip942)" style="fill:#009af9; stroke:none; fill-opacity:0" cx="247.138" cy="1363.54" r="2"></circle>
<circle clip-path="url(#clip942)" style="fill:#009af9; stroke:none; fill-opacity:0" cx="342.848" cy="1254.19" r="2"></circle>
<circle clip-path="url(#clip942)" style="fill:#009af9; stroke:none; fill-opacity:0" cx="438.558" cy="1126.21" r="2"></circle>
<circle clip-path="url(#clip942)" style="fill:#009af9; stroke:none; fill-opacity:0" cx="534.268" cy="1020.59" r="2"></circle>
<circle clip-path="url(#clip942)" style="fill:#009af9; stroke:none; fill-opacity:0" cx="629.978" cy="895.096" r="2"></circle>
<circle clip-path="url(#clip942)" style="fill:#009af9; stroke:none; fill-opacity:0" cx="725.688" cy="795.692" r="2"></circle>
<circle clip-path="url(#clip942)" style="fill:#009af9; stroke:none; fill-opacity:0" cx="821.398" cy="764.628" r="2"></circle>
<circle clip-path="url(#clip942)" style="fill:#009af9; stroke:none; fill-opacity:0" cx="917.107" cy="683.862" r="2"></circle>
<circle clip-path="url(#clip942)" style="fill:#009af9; stroke:none; fill-opacity:0" cx="1012.82" cy="726.109" r="2"></circle>
<circle clip-path="url(#clip942)" style="fill:#009af9; stroke:none; fill-opacity:0" cx="1108.53" cy="618.007" r="2"></circle>
<circle clip-path="url(#clip942)" style="fill:#009af9; stroke:none; fill-opacity:0" cx="1204.24" cy="601.854" r="2"></circle>
<circle clip-path="url(#clip942)" style="fill:#009af9; stroke:none; fill-opacity:0" cx="1299.95" cy="630.433" r="2"></circle>
<circle clip-path="url(#clip942)" style="fill:#009af9; stroke:none; fill-opacity:0" cx="1395.66" cy="611.794" r="2"></circle>
<circle clip-path="url(#clip942)" style="fill:#009af9; stroke:none; fill-opacity:0" cx="1491.37" cy="458.961" r="2"></circle>
<circle clip-path="url(#clip942)" style="fill:#009af9; stroke:none; fill-opacity:0" cx="1587.08" cy="123.472" r="2"></circle>
<circle clip-path="url(#clip942)" style="fill:#009af9; stroke:none; fill-opacity:0" cx="1682.79" cy="695.045" r="2"></circle>
<circle clip-path="url(#clip942)" style="fill:#009af9; stroke:none; fill-opacity:0" cx="1778.5" cy="1226.86" r="2"></circle>
<circle clip-path="url(#clip942)" style="fill:#009af9; stroke:none; fill-opacity:0" cx="1874.21" cy="1302.65" r="2"></circle>
<circle clip-path="url(#clip942)" style="fill:#009af9; stroke:none; fill-opacity:0" cx="1969.92" cy="1342.41" r="2"></circle>
<circle clip-path="url(#clip942)" style="fill:#009af9; stroke:none; fill-opacity:0" cx="2065.63" cy="1354.84" r="2"></circle>
<path clip-path="url(#clip940)" d="M271.066 374.156 L1417.29 374.156 L1417.29 166.796 L271.066 166.796  Z" fill="#ffffff" fill-rule="evenodd" fill-opacity="1"></path>
<polyline clip-path="url(#clip940)" style="stroke:#000000; stroke-linecap:round; stroke-linejoin:round; stroke-width:4; stroke-opacity:1; fill:none" points="271.066,374.156 1417.29,374.156 1417.29,166.796 271.066,166.796 271.066,374.156 "></polyline>
<path clip-path="url(#clip940)" d="M294.993 311.948 L438.558 311.948 L438.558 229.004 L294.993 229.004 L294.993 311.948  Z" fill="#009af9" fill-rule="evenodd" fill-opacity="1"></path>
<polyline clip-path="url(#clip940)" style="stroke:#000000; stroke-linecap:round; stroke-linejoin:round; stroke-width:4; stroke-opacity:1; fill:none" points="294.993,311.948 438.558,311.948 438.558,229.004 294.993,229.004 294.993,311.948 "></polyline>
<path clip-path="url(#clip940)" d="M474.337 245.424 Q471.004 245.424 469.083 247.206 Q467.184 248.989 467.184 252.114 Q467.184 255.239 469.083 257.021 Q471.004 258.803 474.337 258.803 Q477.671 258.803 479.592 257.021 Q481.513 255.215 481.513 252.114 Q481.513 248.989 479.592 247.206 Q477.694 245.424 474.337 245.424 M469.661 243.433 Q466.652 242.692 464.962 240.632 Q463.296 238.572 463.296 235.609 Q463.296 231.466 466.235 229.058 Q469.198 226.651 474.337 226.651 Q479.499 226.651 482.439 229.058 Q485.379 231.466 485.379 235.609 Q485.379 238.572 483.689 240.632 Q482.022 242.692 479.036 243.433 Q482.416 244.22 484.291 246.512 Q486.189 248.803 486.189 252.114 Q486.189 257.137 483.11 259.822 Q480.055 262.507 474.337 262.507 Q468.62 262.507 465.541 259.822 Q462.485 257.137 462.485 252.114 Q462.485 248.803 464.384 246.512 Q466.282 244.22 469.661 243.433 M467.948 236.049 Q467.948 238.734 469.615 240.239 Q471.305 241.743 474.337 241.743 Q477.346 241.743 479.036 240.239 Q480.749 238.734 480.749 236.049 Q480.749 233.364 479.036 231.859 Q477.346 230.354 474.337 230.354 Q471.305 230.354 469.615 231.859 Q467.948 233.364 467.948 236.049 Z" fill="#000000" fill-rule="nonzero" fill-opacity="1"></path><path clip-path="url(#clip940)" d="M493.319 227.276 L515.541 227.276 L515.541 229.266 L502.994 261.836 L498.11 261.836 L509.916 231.211 L493.319 231.211 L493.319 227.276 Z" fill="#000000" fill-rule="nonzero" fill-opacity="1"></path><path clip-path="url(#clip940)" d="M537.508 231.35 L525.703 249.799 L537.508 249.799 L537.508 231.35 M536.281 227.276 L542.161 227.276 L542.161 249.799 L547.091 249.799 L547.091 253.688 L542.161 253.688 L542.161 261.836 L537.508 261.836 L537.508 253.688 L521.906 253.688 L521.906 249.174 L536.281 227.276 Z" fill="#000000" fill-rule="nonzero" fill-opacity="1"></path><path clip-path="url(#clip940)" d="M565.402 242.692 Q562.253 242.692 560.402 244.845 Q558.573 246.998 558.573 250.748 Q558.573 254.475 560.402 256.651 Q562.253 258.803 565.402 258.803 Q568.55 258.803 570.378 256.651 Q572.23 254.475 572.23 250.748 Q572.23 246.998 570.378 244.845 Q568.55 242.692 565.402 242.692 M574.684 228.04 L574.684 232.299 Q572.925 231.466 571.119 231.026 Q569.337 230.586 567.577 230.586 Q562.948 230.586 560.494 233.711 Q558.064 236.836 557.716 243.155 Q559.082 241.141 561.142 240.077 Q563.202 238.989 565.679 238.989 Q570.888 238.989 573.897 242.16 Q576.929 245.308 576.929 250.748 Q576.929 256.072 573.781 259.289 Q570.633 262.507 565.402 262.507 Q559.406 262.507 556.235 257.924 Q553.064 253.317 553.064 244.59 Q553.064 236.396 556.952 231.535 Q560.841 226.651 567.392 226.651 Q569.152 226.651 570.934 226.998 Q572.739 227.345 574.684 228.04 Z" fill="#000000" fill-rule="nonzero" fill-opacity="1"></path><path clip-path="url(#clip940)" d="M619.637 240.887 Q621.235 238.016 623.457 236.651 Q625.679 235.285 628.688 235.285 Q632.739 235.285 634.938 238.132 Q637.137 240.956 637.137 246.188 L637.137 261.836 L632.855 261.836 L632.855 246.327 Q632.855 242.6 631.535 240.794 Q630.216 238.989 627.508 238.989 Q624.198 238.989 622.276 241.188 Q620.355 243.387 620.355 247.183 L620.355 261.836 L616.073 261.836 L616.073 246.327 Q616.073 242.577 614.753 240.794 Q613.434 238.989 610.679 238.989 Q607.415 238.989 605.494 241.211 Q603.573 243.41 603.573 247.183 L603.573 261.836 L599.29 261.836 L599.29 235.91 L603.573 235.91 L603.573 239.938 Q605.031 237.553 607.068 236.419 Q609.105 235.285 611.906 235.285 Q614.73 235.285 616.698 236.72 Q618.688 238.155 619.637 240.887 Z" fill="#000000" fill-rule="nonzero" fill-opacity="1"></path><path clip-path="url(#clip940)" d="M657.415 248.803 Q652.253 248.803 650.262 249.984 Q648.271 251.164 648.271 254.012 Q648.271 256.28 649.753 257.623 Q651.258 258.942 653.827 258.942 Q657.369 258.942 659.498 256.442 Q661.651 253.919 661.651 249.752 L661.651 248.803 L657.415 248.803 M665.91 247.044 L665.91 261.836 L661.651 261.836 L661.651 257.901 Q660.193 260.262 658.017 261.396 Q655.841 262.507 652.693 262.507 Q648.711 262.507 646.35 260.285 Q644.012 258.039 644.012 254.289 Q644.012 249.914 646.929 247.692 Q649.869 245.47 655.679 245.47 L661.651 245.47 L661.651 245.053 Q661.651 242.114 659.707 240.516 Q657.785 238.896 654.29 238.896 Q652.068 238.896 649.961 239.428 Q647.855 239.961 645.91 241.026 L645.91 237.09 Q648.248 236.188 650.447 235.748 Q652.646 235.285 654.73 235.285 Q660.355 235.285 663.132 238.202 Q665.91 241.118 665.91 247.044 Z" fill="#000000" fill-rule="nonzero" fill-opacity="1"></path><path clip-path="url(#clip940)" d="M678.896 228.549 L678.896 235.91 L687.669 235.91 L687.669 239.22 L678.896 239.22 L678.896 253.294 Q678.896 256.465 679.753 257.368 Q680.632 258.271 683.294 258.271 L687.669 258.271 L687.669 261.836 L683.294 261.836 Q678.364 261.836 676.489 260.007 Q674.614 258.155 674.614 253.294 L674.614 239.22 L671.489 239.22 L671.489 235.91 L674.614 235.91 L674.614 228.549 L678.896 228.549 Z" fill="#000000" fill-rule="nonzero" fill-opacity="1"></path><path clip-path="url(#clip940)" d="M711.929 236.905 L711.929 240.887 Q710.123 239.891 708.294 239.405 Q706.489 238.896 704.637 238.896 Q700.493 238.896 698.202 241.535 Q695.91 244.151 695.91 248.896 Q695.91 253.641 698.202 256.28 Q700.493 258.896 704.637 258.896 Q706.489 258.896 708.294 258.41 Q710.123 257.901 711.929 256.905 L711.929 260.84 Q710.146 261.674 708.225 262.09 Q706.327 262.507 704.174 262.507 Q698.317 262.507 694.868 258.826 Q691.419 255.146 691.419 248.896 Q691.419 242.553 694.892 238.919 Q698.387 235.285 704.452 235.285 Q706.419 235.285 708.294 235.702 Q710.169 236.095 711.929 236.905 Z" fill="#000000" fill-rule="nonzero" fill-opacity="1"></path><path clip-path="url(#clip940)" d="M740.887 246.188 L740.887 261.836 L736.627 261.836 L736.627 246.327 Q736.627 242.646 735.192 240.817 Q733.757 238.989 730.887 238.989 Q727.438 238.989 725.447 241.188 Q723.456 243.387 723.456 247.183 L723.456 261.836 L719.174 261.836 L719.174 225.817 L723.456 225.817 L723.456 239.938 Q724.984 237.6 727.044 236.442 Q729.128 235.285 731.836 235.285 Q736.303 235.285 738.595 238.063 Q740.887 240.817 740.887 246.188 Z" fill="#000000" fill-rule="nonzero" fill-opacity="1"></path><path clip-path="url(#clip940)" d="M771.558 247.808 L771.558 249.891 L751.975 249.891 Q752.252 254.289 754.613 256.604 Q756.998 258.896 761.234 258.896 Q763.688 258.896 765.979 258.294 Q768.294 257.692 770.562 256.489 L770.562 260.516 Q768.271 261.488 765.863 261.998 Q763.456 262.507 760.979 262.507 Q754.776 262.507 751.141 258.896 Q747.53 255.285 747.53 249.127 Q747.53 242.762 750.956 239.035 Q754.405 235.285 760.238 235.285 Q765.47 235.285 768.502 238.665 Q771.558 242.021 771.558 247.808 M767.299 246.558 Q767.252 243.063 765.331 240.979 Q763.433 238.896 760.285 238.896 Q756.72 238.896 754.567 240.91 Q752.438 242.924 752.113 246.581 L767.299 246.558 Z" fill="#000000" fill-rule="nonzero" fill-opacity="1"></path><path clip-path="url(#clip940)" d="M795.076 236.674 L795.076 240.702 Q793.271 239.776 791.326 239.313 Q789.382 238.85 787.298 238.85 Q784.127 238.85 782.53 239.822 Q780.956 240.794 780.956 242.739 Q780.956 244.22 782.09 245.077 Q783.224 245.91 786.65 246.674 L788.109 246.998 Q792.646 247.97 794.544 249.752 Q796.465 251.512 796.465 254.683 Q796.465 258.294 793.595 260.401 Q790.748 262.507 785.748 262.507 Q783.664 262.507 781.396 262.09 Q779.15 261.697 776.65 260.887 L776.65 256.489 Q779.011 257.715 781.303 258.34 Q783.595 258.942 785.84 258.942 Q788.849 258.942 790.47 257.924 Q792.09 256.882 792.09 255.007 Q792.09 253.271 790.91 252.345 Q789.752 251.419 785.794 250.563 L784.312 250.215 Q780.354 249.382 778.595 247.669 Q776.836 245.933 776.836 242.924 Q776.836 239.266 779.428 237.276 Q782.021 235.285 786.789 235.285 Q789.15 235.285 791.234 235.632 Q793.317 235.979 795.076 236.674 Z" fill="#000000" fill-rule="nonzero" fill-opacity="1"></path><path clip-path="url(#clip940)" d="M828.363 238.896 Q824.937 238.896 822.946 241.581 Q820.956 244.243 820.956 248.896 Q820.956 253.549 822.923 256.234 Q824.914 258.896 828.363 258.896 Q831.766 258.896 833.757 256.211 Q835.747 253.526 835.747 248.896 Q835.747 244.29 833.757 241.604 Q831.766 238.896 828.363 238.896 M828.363 235.285 Q833.919 235.285 837.09 238.896 Q840.261 242.507 840.261 248.896 Q840.261 255.262 837.09 258.896 Q833.919 262.507 828.363 262.507 Q822.784 262.507 819.613 258.896 Q816.465 255.262 816.465 248.896 Q816.465 242.507 819.613 238.896 Q822.784 235.285 828.363 235.285 Z" fill="#000000" fill-rule="nonzero" fill-opacity="1"></path><path clip-path="url(#clip940)" d="M846.882 251.604 L846.882 235.91 L851.141 235.91 L851.141 251.442 Q851.141 255.123 852.576 256.975 Q854.011 258.803 856.881 258.803 Q860.331 258.803 862.321 256.604 Q864.335 254.405 864.335 250.609 L864.335 235.91 L868.594 235.91 L868.594 261.836 L864.335 261.836 L864.335 257.854 Q862.784 260.215 860.724 261.373 Q858.687 262.507 855.979 262.507 Q851.511 262.507 849.196 259.729 Q846.882 256.951 846.882 251.604 M857.599 235.285 L857.599 235.285 Z" fill="#000000" fill-rule="nonzero" fill-opacity="1"></path><path clip-path="url(#clip940)" d="M881.58 228.549 L881.58 235.91 L890.353 235.91 L890.353 239.22 L881.58 239.22 L881.58 253.294 Q881.58 256.465 882.437 257.368 Q883.316 258.271 885.979 258.271 L890.353 258.271 L890.353 261.836 L885.979 261.836 Q881.048 261.836 879.173 260.007 Q877.298 258.155 877.298 253.294 L877.298 239.22 L874.173 239.22 L874.173 235.91 L877.298 235.91 L877.298 228.549 L881.58 228.549 Z" fill="#000000" fill-rule="nonzero" fill-opacity="1"></path><path clip-path="url(#clip940)" d="M921.071 238.896 Q917.645 238.896 915.654 241.581 Q913.664 244.243 913.664 248.896 Q913.664 253.549 915.631 256.234 Q917.622 258.896 921.071 258.896 Q924.474 258.896 926.464 256.211 Q928.455 253.526 928.455 248.896 Q928.455 244.29 926.464 241.604 Q924.474 238.896 921.071 238.896 M921.071 235.285 Q926.626 235.285 929.798 238.896 Q932.969 242.507 932.969 248.896 Q932.969 255.262 929.798 258.896 Q926.626 262.507 921.071 262.507 Q915.492 262.507 912.321 258.896 Q909.173 255.262 909.173 248.896 Q909.173 242.507 912.321 238.896 Q915.492 235.285 921.071 235.285 Z" fill="#000000" fill-rule="nonzero" fill-opacity="1"></path><path clip-path="url(#clip940)" d="M953.154 225.817 L953.154 229.359 L949.08 229.359 Q946.788 229.359 945.886 230.285 Q945.006 231.211 945.006 233.618 L945.006 235.91 L952.02 235.91 L952.02 239.22 L945.006 239.22 L945.006 261.836 L940.724 261.836 L940.724 239.22 L936.65 239.22 L936.65 235.91 L940.724 235.91 L940.724 234.104 Q940.724 229.776 942.737 227.808 Q944.751 225.817 949.126 225.817 L953.154 225.817 Z" fill="#000000" fill-rule="nonzero" fill-opacity="1"></path><path clip-path="url(#clip940)" d="M973.2 257.901 L980.839 257.901 L980.839 231.535 L972.529 233.202 L972.529 228.942 L980.793 227.276 L985.469 227.276 L985.469 257.901 L993.108 257.901 L993.108 261.836 L973.2 261.836 L973.2 257.901 Z" fill="#000000" fill-rule="nonzero" fill-opacity="1"></path><path clip-path="url(#clip940)" d="M1012.55 230.354 Q1008.94 230.354 1007.11 233.919 Q1005.31 237.461 1005.31 244.59 Q1005.31 251.697 1007.11 255.262 Q1008.94 258.803 1012.55 258.803 Q1016.19 258.803 1017.99 255.262 Q1019.82 251.697 1019.82 244.59 Q1019.82 237.461 1017.99 233.919 Q1016.19 230.354 1012.55 230.354 M1012.55 226.651 Q1018.36 226.651 1021.42 231.257 Q1024.5 235.84 1024.5 244.59 Q1024.5 253.317 1021.42 257.924 Q1018.36 262.507 1012.55 262.507 Q1006.74 262.507 1003.66 257.924 Q1000.61 253.317 1000.61 244.59 Q1000.61 235.84 1003.66 231.257 Q1006.74 226.651 1012.55 226.651 Z" fill="#000000" fill-rule="nonzero" fill-opacity="1"></path><path clip-path="url(#clip940)" d="M1042.71 230.354 Q1039.1 230.354 1037.27 233.919 Q1035.47 237.461 1035.47 244.59 Q1035.47 251.697 1037.27 255.262 Q1039.1 258.803 1042.71 258.803 Q1046.35 258.803 1048.15 255.262 Q1049.98 251.697 1049.98 244.59 Q1049.98 237.461 1048.15 233.919 Q1046.35 230.354 1042.71 230.354 M1042.71 226.651 Q1048.52 226.651 1051.58 231.257 Q1054.66 235.84 1054.66 244.59 Q1054.66 253.317 1051.58 257.924 Q1048.52 262.507 1042.71 262.507 Q1036.9 262.507 1033.82 257.924 Q1030.77 253.317 1030.77 244.59 Q1030.77 235.84 1033.82 231.257 Q1036.9 226.651 1042.71 226.651 Z" fill="#000000" fill-rule="nonzero" fill-opacity="1"></path><path clip-path="url(#clip940)" d="M1066.9 257.901 L1083.22 257.901 L1083.22 261.836 L1061.28 261.836 L1061.28 257.901 Q1063.94 255.146 1068.52 250.516 Q1073.13 245.864 1074.31 244.521 Q1076.56 241.998 1077.44 240.262 Q1078.34 238.503 1078.34 236.813 Q1078.34 234.058 1076.39 232.322 Q1074.47 230.586 1071.37 230.586 Q1069.17 230.586 1066.72 231.35 Q1064.29 232.114 1061.51 233.665 L1061.51 228.942 Q1064.33 227.808 1066.79 227.229 Q1069.24 226.651 1071.28 226.651 Q1076.65 226.651 1079.84 229.336 Q1083.04 232.021 1083.04 236.512 Q1083.04 238.641 1082.23 240.563 Q1081.44 242.461 1079.33 245.053 Q1078.76 245.725 1075.65 248.942 Q1072.55 252.137 1066.9 257.901 Z" fill="#000000" fill-rule="nonzero" fill-opacity="1"></path><path clip-path="url(#clip940)" d="M1107.2 243.202 Q1110.56 243.919 1112.44 246.188 Q1114.33 248.456 1114.33 251.789 Q1114.33 256.905 1110.82 259.706 Q1107.3 262.507 1100.82 262.507 Q1098.64 262.507 1096.32 262.067 Q1094.03 261.651 1091.58 260.794 L1091.58 256.28 Q1093.52 257.414 1095.84 257.993 Q1098.15 258.572 1100.68 258.572 Q1105.07 258.572 1107.37 256.836 Q1109.68 255.1 1109.68 251.789 Q1109.68 248.734 1107.53 247.021 Q1105.4 245.285 1101.58 245.285 L1097.55 245.285 L1097.55 241.442 L1101.76 241.442 Q1105.21 241.442 1107.04 240.077 Q1108.87 238.688 1108.87 236.095 Q1108.87 233.433 1106.97 232.021 Q1105.1 230.586 1101.58 230.586 Q1099.66 230.586 1097.46 231.003 Q1095.26 231.419 1092.62 232.299 L1092.62 228.132 Q1095.28 227.391 1097.6 227.021 Q1099.94 226.651 1102 226.651 Q1107.32 226.651 1110.42 229.081 Q1113.52 231.489 1113.52 235.609 Q1113.52 238.479 1111.88 240.47 Q1110.24 242.438 1107.2 243.202 Z" fill="#000000" fill-rule="nonzero" fill-opacity="1"></path><path clip-path="url(#clip940)" d="M1137.85 227.276 L1144.82 227.276 L1153.64 250.794 L1162.5 227.276 L1169.47 227.276 L1169.47 261.836 L1164.91 261.836 L1164.91 231.489 L1156 255.192 L1151.3 255.192 L1142.39 231.489 L1142.39 261.836 L1137.85 261.836 L1137.85 227.276 Z" fill="#000000" fill-rule="nonzero" fill-opacity="1"></path><path clip-path="url(#clip940)" d="M1178.75 227.276 L1183.43 227.276 L1183.43 261.836 L1178.75 261.836 L1178.75 227.276 Z" fill="#000000" fill-rule="nonzero" fill-opacity="1"></path><path clip-path="url(#clip940)" d="M1209.12 245.632 Q1210.63 246.141 1212.04 247.808 Q1213.48 249.475 1214.91 252.391 L1219.66 261.836 L1214.63 261.836 L1210.21 252.97 Q1208.5 249.498 1206.88 248.364 Q1205.28 247.229 1202.5 247.229 L1197.41 247.229 L1197.41 261.836 L1192.74 261.836 L1192.74 227.276 L1203.29 227.276 Q1209.22 227.276 1212.13 229.753 Q1215.05 232.229 1215.05 237.229 Q1215.05 240.493 1213.52 242.646 Q1212.02 244.799 1209.12 245.632 M1197.41 231.118 L1197.41 243.387 L1203.29 243.387 Q1206.67 243.387 1208.38 241.836 Q1210.12 240.262 1210.12 237.229 Q1210.12 234.197 1208.38 232.669 Q1206.67 231.118 1203.29 231.118 L1197.41 231.118 Z" fill="#000000" fill-rule="nonzero" fill-opacity="1"></path><path clip-path="url(#clip940)" d="M1225.68 227.276 L1230.35 227.276 L1230.35 261.836 L1225.68 261.836 L1225.68 227.276 Z" fill="#000000" fill-rule="nonzero" fill-opacity="1"></path><path clip-path="url(#clip940)" d="M1258.66 257.947 L1258.66 271.697 L1254.38 271.697 L1254.38 235.91 L1258.66 235.91 L1258.66 239.845 Q1260 237.53 1262.04 236.419 Q1264.1 235.285 1266.95 235.285 Q1271.67 235.285 1274.61 239.035 Q1277.57 242.785 1277.57 248.896 Q1277.57 255.007 1274.61 258.757 Q1271.67 262.507 1266.95 262.507 Q1264.1 262.507 1262.04 261.396 Q1260 260.262 1258.66 257.947 M1273.15 248.896 Q1273.15 244.197 1271.21 241.535 Q1269.29 238.85 1265.91 238.85 Q1262.53 238.85 1260.58 241.535 Q1258.66 244.197 1258.66 248.896 Q1258.66 253.595 1260.58 256.28 Q1262.53 258.942 1265.91 258.942 Q1269.29 258.942 1271.21 256.28 Q1273.15 253.595 1273.15 248.896 Z" fill="#000000" fill-rule="nonzero" fill-opacity="1"></path><path clip-path="url(#clip940)" d="M1294.68 238.896 Q1291.25 238.896 1289.26 241.581 Q1287.27 244.243 1287.27 248.896 Q1287.27 253.549 1289.24 256.234 Q1291.23 258.896 1294.68 258.896 Q1298.08 258.896 1300.07 256.211 Q1302.06 253.526 1302.06 248.896 Q1302.06 244.29 1300.07 241.604 Q1298.08 238.896 1294.68 238.896 M1294.68 235.285 Q1300.24 235.285 1303.41 238.896 Q1306.58 242.507 1306.58 248.896 Q1306.58 255.262 1303.41 258.896 Q1300.24 262.507 1294.68 262.507 Q1289.1 262.507 1285.93 258.896 Q1282.78 255.262 1282.78 248.896 Q1282.78 242.507 1285.93 238.896 Q1289.1 235.285 1294.68 235.285 Z" fill="#000000" fill-rule="nonzero" fill-opacity="1"></path><path clip-path="url(#clip940)" d="M1313.64 235.91 L1317.9 235.91 L1317.9 261.836 L1313.64 261.836 L1313.64 235.91 M1313.64 225.817 L1317.9 225.817 L1317.9 231.211 L1313.64 231.211 L1313.64 225.817 Z" fill="#000000" fill-rule="nonzero" fill-opacity="1"></path><path clip-path="url(#clip940)" d="M1348.36 246.188 L1348.36 261.836 L1344.1 261.836 L1344.1 246.327 Q1344.1 242.646 1342.67 240.817 Q1341.23 238.989 1338.36 238.989 Q1334.91 238.989 1332.92 241.188 Q1330.93 243.387 1330.93 247.183 L1330.93 261.836 L1326.65 261.836 L1326.65 235.91 L1330.93 235.91 L1330.93 239.938 Q1332.46 237.6 1334.52 236.442 Q1336.6 235.285 1339.31 235.285 Q1343.78 235.285 1346.07 238.063 Q1348.36 240.817 1348.36 246.188 Z" fill="#000000" fill-rule="nonzero" fill-opacity="1"></path><path clip-path="url(#clip940)" d="M1361.07 228.549 L1361.07 235.91 L1369.84 235.91 L1369.84 239.22 L1361.07 239.22 L1361.07 253.294 Q1361.07 256.465 1361.93 257.368 Q1362.8 258.271 1365.47 258.271 L1369.84 258.271 L1369.84 261.836 L1365.47 261.836 Q1360.54 261.836 1358.66 260.007 Q1356.79 258.155 1356.79 253.294 L1356.79 239.22 L1353.66 239.22 L1353.66 235.91 L1356.79 235.91 L1356.79 228.549 L1361.07 228.549 Z" fill="#000000" fill-rule="nonzero" fill-opacity="1"></path><path clip-path="url(#clip940)" d="M1391.97 236.674 L1391.97 240.702 Q1390.17 239.776 1388.22 239.313 Q1386.28 238.85 1384.19 238.85 Q1381.02 238.85 1379.42 239.822 Q1377.85 240.794 1377.85 242.739 Q1377.85 244.22 1378.99 245.077 Q1380.12 245.91 1383.55 246.674 L1385 246.998 Q1389.54 247.97 1391.44 249.752 Q1393.36 251.512 1393.36 254.683 Q1393.36 258.294 1390.49 260.401 Q1387.64 262.507 1382.64 262.507 Q1380.56 262.507 1378.29 262.09 Q1376.05 261.697 1373.55 260.887 L1373.55 256.489 Q1375.91 257.715 1378.2 258.34 Q1380.49 258.942 1382.74 258.942 Q1385.74 258.942 1387.36 257.924 Q1388.99 256.882 1388.99 255.007 Q1388.99 253.271 1387.8 252.345 Q1386.65 251.419 1382.69 250.563 L1381.21 250.215 Q1377.25 249.382 1375.49 247.669 Q1373.73 245.933 1373.73 242.924 Q1373.73 239.266 1376.32 237.276 Q1378.92 235.285 1383.68 235.285 Q1386.05 235.285 1388.13 235.632 Q1390.21 235.979 1391.97 236.674 Z" fill="#000000" fill-rule="nonzero" fill-opacity="1"></path><path clip-path="url(#clip940)" d="M475.888 300.643 Q470.726 300.643 468.735 301.824 Q466.745 303.004 466.745 305.852 Q466.745 308.12 468.226 309.463 Q469.731 310.782 472.3 310.782 Q475.842 310.782 477.971 308.282 Q480.124 305.759 480.124 301.592 L480.124 300.643 L475.888 300.643 M484.383 298.884 L484.383 313.676 L480.124 313.676 L480.124 309.741 Q478.666 312.102 476.49 313.236 Q474.314 314.347 471.166 314.347 Q467.184 314.347 464.823 312.125 Q462.485 309.879 462.485 306.129 Q462.485 301.754 465.402 299.532 Q468.342 297.31 474.152 297.31 L480.124 297.31 L480.124 296.893 Q480.124 293.954 478.18 292.356 Q476.258 290.736 472.763 290.736 Q470.541 290.736 468.434 291.268 Q466.328 291.801 464.384 292.866 L464.384 288.93 Q466.722 288.028 468.921 287.588 Q471.12 287.125 473.203 287.125 Q478.828 287.125 481.606 290.042 Q484.383 292.958 484.383 298.884 Z" fill="#000000" fill-rule="nonzero" fill-opacity="1"></path><path clip-path="url(#clip940)" d="M497.369 280.389 L497.369 287.75 L506.143 287.75 L506.143 291.06 L497.369 291.06 L497.369 305.134 Q497.369 308.305 498.226 309.208 Q499.106 310.111 501.768 310.111 L506.143 310.111 L506.143 313.676 L501.768 313.676 Q496.837 313.676 494.962 311.847 Q493.087 309.995 493.087 305.134 L493.087 291.06 L489.962 291.06 L489.962 287.75 L493.087 287.75 L493.087 280.389 L497.369 280.389 Z" fill="#000000" fill-rule="nonzero" fill-opacity="1"></path><path clip-path="url(#clip940)" d="M531.027 280.389 L531.027 287.75 L539.8 287.75 L539.8 291.06 L531.027 291.06 L531.027 305.134 Q531.027 308.305 531.883 309.208 Q532.763 310.111 535.425 310.111 L539.8 310.111 L539.8 313.676 L535.425 313.676 Q530.494 313.676 528.619 311.847 Q526.744 309.995 526.744 305.134 L526.744 291.06 L523.619 291.06 L523.619 287.75 L526.744 287.75 L526.744 280.389 L531.027 280.389 Z" fill="#000000" fill-rule="nonzero" fill-opacity="1"></path><path clip-path="url(#clip940)" d="M566.952 298.028 L566.952 313.676 L562.693 313.676 L562.693 298.167 Q562.693 294.486 561.258 292.657 Q559.823 290.829 556.952 290.829 Q553.503 290.829 551.513 293.028 Q549.522 295.227 549.522 299.023 L549.522 313.676 L545.24 313.676 L545.24 277.657 L549.522 277.657 L549.522 291.778 Q551.05 289.44 553.11 288.282 Q555.193 287.125 557.902 287.125 Q562.369 287.125 564.661 289.903 Q566.952 292.657 566.952 298.028 Z" fill="#000000" fill-rule="nonzero" fill-opacity="1"></path><path clip-path="url(#clip940)" d="M590.471 291.731 Q589.753 291.315 588.897 291.13 Q588.063 290.921 587.045 290.921 Q583.434 290.921 581.489 293.282 Q579.568 295.62 579.568 300.018 L579.568 313.676 L575.286 313.676 L575.286 287.75 L579.568 287.75 L579.568 291.778 Q580.911 289.417 583.063 288.282 Q585.216 287.125 588.295 287.125 Q588.735 287.125 589.267 287.194 Q589.8 287.241 590.448 287.356 L590.471 291.731 Z" fill="#000000" fill-rule="nonzero" fill-opacity="1"></path><path clip-path="url(#clip940)" d="M616.073 299.648 L616.073 301.731 L596.489 301.731 Q596.767 306.129 599.128 308.444 Q601.512 310.736 605.749 310.736 Q608.202 310.736 610.494 310.134 Q612.809 309.532 615.077 308.329 L615.077 312.356 Q612.786 313.328 610.378 313.838 Q607.971 314.347 605.494 314.347 Q599.29 314.347 595.656 310.736 Q592.045 307.125 592.045 300.967 Q592.045 294.602 595.471 290.875 Q598.92 287.125 604.753 287.125 Q609.985 287.125 613.017 290.505 Q616.073 293.861 616.073 299.648 M611.813 298.398 Q611.767 294.903 609.846 292.819 Q607.948 290.736 604.799 290.736 Q601.235 290.736 599.082 292.75 Q596.952 294.764 596.628 298.421 L611.813 298.398 Z" fill="#000000" fill-rule="nonzero" fill-opacity="1"></path><path clip-path="url(#clip940)" d="M639.591 288.514 L639.591 292.542 Q637.785 291.616 635.841 291.153 Q633.897 290.69 631.813 290.69 Q628.642 290.69 627.045 291.662 Q625.471 292.634 625.471 294.579 Q625.471 296.06 626.605 296.917 Q627.739 297.75 631.165 298.514 L632.623 298.838 Q637.16 299.81 639.059 301.592 Q640.98 303.352 640.98 306.523 Q640.98 310.134 638.109 312.241 Q635.262 314.347 630.262 314.347 Q628.179 314.347 625.91 313.93 Q623.665 313.537 621.165 312.727 L621.165 308.329 Q623.526 309.555 625.818 310.18 Q628.11 310.782 630.355 310.782 Q633.364 310.782 634.984 309.764 Q636.605 308.722 636.605 306.847 Q636.605 305.111 635.424 304.185 Q634.267 303.259 630.309 302.403 L628.827 302.055 Q624.869 301.222 623.11 299.509 Q621.35 297.773 621.35 294.764 Q621.35 291.106 623.943 289.116 Q626.535 287.125 631.304 287.125 Q633.665 287.125 635.748 287.472 Q637.832 287.819 639.591 288.514 Z" fill="#000000" fill-rule="nonzero" fill-opacity="1"></path><path clip-path="url(#clip940)" d="M669.313 298.028 L669.313 313.676 L665.054 313.676 L665.054 298.167 Q665.054 294.486 663.619 292.657 Q662.183 290.829 659.313 290.829 Q655.864 290.829 653.873 293.028 Q651.883 295.227 651.883 299.023 L651.883 313.676 L647.6 313.676 L647.6 277.657 L651.883 277.657 L651.883 291.778 Q653.41 289.44 655.47 288.282 Q657.554 287.125 660.262 287.125 Q664.73 287.125 667.021 289.903 Q669.313 292.657 669.313 298.028 Z" fill="#000000" fill-rule="nonzero" fill-opacity="1"></path><path clip-path="url(#clip940)" d="M687.855 290.736 Q684.429 290.736 682.438 293.421 Q680.447 296.083 680.447 300.736 Q680.447 305.389 682.415 308.074 Q684.406 310.736 687.855 310.736 Q691.257 310.736 693.248 308.051 Q695.239 305.366 695.239 300.736 Q695.239 296.13 693.248 293.444 Q691.257 290.736 687.855 290.736 M687.855 287.125 Q693.41 287.125 696.581 290.736 Q699.753 294.347 699.753 300.736 Q699.753 307.102 696.581 310.736 Q693.41 314.347 687.855 314.347 Q682.276 314.347 679.105 310.736 Q675.956 307.102 675.956 300.736 Q675.956 294.347 679.105 290.736 Q682.276 287.125 687.855 287.125 Z" fill="#000000" fill-rule="nonzero" fill-opacity="1"></path><path clip-path="url(#clip940)" d="M706.813 277.657 L711.072 277.657 L711.072 313.676 L706.813 313.676 L706.813 277.657 Z" fill="#000000" fill-rule="nonzero" fill-opacity="1"></path><path clip-path="url(#clip940)" d="M737.044 291.685 L737.044 277.657 L741.303 277.657 L741.303 313.676 L737.044 313.676 L737.044 309.787 Q735.702 312.102 733.641 313.236 Q731.604 314.347 728.734 314.347 Q724.035 314.347 721.072 310.597 Q718.132 306.847 718.132 300.736 Q718.132 294.625 721.072 290.875 Q724.035 287.125 728.734 287.125 Q731.604 287.125 733.641 288.259 Q735.702 289.37 737.044 291.685 M722.53 300.736 Q722.53 305.435 724.452 308.12 Q726.396 310.782 729.776 310.782 Q733.155 310.782 735.1 308.12 Q737.044 305.435 737.044 300.736 Q737.044 296.037 735.1 293.375 Q733.155 290.69 729.776 290.69 Q726.396 290.69 724.452 293.375 Q722.53 296.037 722.53 300.736 Z" fill="#000000" fill-rule="nonzero" fill-opacity="1"></path><path clip-path="url(#clip940)" d="M782.206 291.685 L782.206 277.657 L786.465 277.657 L786.465 313.676 L782.206 313.676 L782.206 309.787 Q780.863 312.102 778.803 313.236 Q776.766 314.347 773.896 314.347 Q769.197 314.347 766.234 310.597 Q763.294 306.847 763.294 300.736 Q763.294 294.625 766.234 290.875 Q769.197 287.125 773.896 287.125 Q776.766 287.125 778.803 288.259 Q780.863 289.37 782.206 291.685 M767.692 300.736 Q767.692 305.435 769.613 308.12 Q771.558 310.782 774.937 310.782 Q778.317 310.782 780.261 308.12 Q782.206 305.435 782.206 300.736 Q782.206 296.037 780.261 293.375 Q778.317 290.69 774.937 290.69 Q771.558 290.69 769.613 293.375 Q767.692 296.037 767.692 300.736 Z" fill="#000000" fill-rule="nonzero" fill-opacity="1"></path><path clip-path="url(#clip940)" d="M795.238 287.75 L799.497 287.75 L799.497 313.676 L795.238 313.676 L795.238 287.75 M795.238 277.657 L799.497 277.657 L799.497 283.051 L795.238 283.051 L795.238 277.657 Z" fill="#000000" fill-rule="nonzero" fill-opacity="1"></path><path clip-path="url(#clip940)" d="M824.937 288.514 L824.937 292.542 Q823.132 291.616 821.187 291.153 Q819.243 290.69 817.159 290.69 Q813.988 290.69 812.391 291.662 Q810.817 292.634 810.817 294.579 Q810.817 296.06 811.951 296.917 Q813.085 297.75 816.511 298.514 L817.97 298.838 Q822.507 299.81 824.405 301.592 Q826.326 303.352 826.326 306.523 Q826.326 310.134 823.456 312.241 Q820.608 314.347 815.609 314.347 Q813.525 314.347 811.257 313.93 Q809.011 313.537 806.511 312.727 L806.511 308.329 Q808.872 309.555 811.164 310.18 Q813.456 310.782 815.701 310.782 Q818.71 310.782 820.331 309.764 Q821.951 308.722 821.951 306.847 Q821.951 305.111 820.771 304.185 Q819.613 303.259 815.655 302.403 L814.173 302.055 Q810.215 301.222 808.456 299.509 Q806.697 297.773 806.697 294.764 Q806.697 291.106 809.289 289.116 Q811.882 287.125 816.65 287.125 Q819.011 287.125 821.095 287.472 Q823.178 287.819 824.937 288.514 Z" fill="#000000" fill-rule="nonzero" fill-opacity="1"></path><path clip-path="url(#clip940)" d="M837.321 280.389 L837.321 287.75 L846.094 287.75 L846.094 291.06 L837.321 291.06 L837.321 305.134 Q837.321 308.305 838.178 309.208 Q839.057 310.111 841.719 310.111 L846.094 310.111 L846.094 313.676 L841.719 313.676 Q836.789 313.676 834.914 311.847 Q833.039 309.995 833.039 305.134 L833.039 291.06 L829.914 291.06 L829.914 287.75 L833.039 287.75 L833.039 280.389 L837.321 280.389 Z" fill="#000000" fill-rule="nonzero" fill-opacity="1"></path><path clip-path="url(#clip940)" d="M863.479 300.643 Q858.317 300.643 856.326 301.824 Q854.335 303.004 854.335 305.852 Q854.335 308.12 855.817 309.463 Q857.321 310.782 859.891 310.782 Q863.432 310.782 865.562 308.282 Q867.715 305.759 867.715 301.592 L867.715 300.643 L863.479 300.643 M871.974 298.884 L871.974 313.676 L867.715 313.676 L867.715 309.741 Q866.256 312.102 864.08 313.236 Q861.905 314.347 858.756 314.347 Q854.775 314.347 852.414 312.125 Q850.076 309.879 850.076 306.129 Q850.076 301.754 852.993 299.532 Q855.932 297.31 861.743 297.31 L867.715 297.31 L867.715 296.893 Q867.715 293.954 865.77 292.356 Q863.849 290.736 860.354 290.736 Q858.131 290.736 856.025 291.268 Q853.918 291.801 851.974 292.866 L851.974 288.93 Q854.312 288.028 856.511 287.588 Q858.71 287.125 860.793 287.125 Q866.418 287.125 869.196 290.042 Q871.974 292.958 871.974 298.884 Z" fill="#000000" fill-rule="nonzero" fill-opacity="1"></path><path clip-path="url(#clip940)" d="M902.298 298.028 L902.298 313.676 L898.039 313.676 L898.039 298.167 Q898.039 294.486 896.603 292.657 Q895.168 290.829 892.298 290.829 Q888.849 290.829 886.858 293.028 Q884.867 295.227 884.867 299.023 L884.867 313.676 L880.585 313.676 L880.585 287.75 L884.867 287.75 L884.867 291.778 Q886.395 289.44 888.455 288.282 Q890.539 287.125 893.247 287.125 Q897.715 287.125 900.006 289.903 Q902.298 292.657 902.298 298.028 Z" fill="#000000" fill-rule="nonzero" fill-opacity="1"></path><path clip-path="url(#clip940)" d="M929.451 288.745 L929.451 292.727 Q927.645 291.731 925.816 291.245 Q924.011 290.736 922.159 290.736 Q918.015 290.736 915.724 293.375 Q913.432 295.991 913.432 300.736 Q913.432 305.481 915.724 308.12 Q918.015 310.736 922.159 310.736 Q924.011 310.736 925.816 310.25 Q927.645 309.741 929.451 308.745 L929.451 312.68 Q927.668 313.514 925.747 313.93 Q923.849 314.347 921.696 314.347 Q915.839 314.347 912.39 310.666 Q908.941 306.986 908.941 300.736 Q908.941 294.393 912.414 290.759 Q915.909 287.125 921.974 287.125 Q923.941 287.125 925.816 287.542 Q927.691 287.935 929.451 288.745 Z" fill="#000000" fill-rule="nonzero" fill-opacity="1"></path><path clip-path="url(#clip940)" d="M959.034 299.648 L959.034 301.731 L939.45 301.731 Q939.728 306.129 942.089 308.444 Q944.474 310.736 948.71 310.736 Q951.163 310.736 953.455 310.134 Q955.77 309.532 958.038 308.329 L958.038 312.356 Q955.747 313.328 953.339 313.838 Q950.932 314.347 948.455 314.347 Q942.251 314.347 938.617 310.736 Q935.006 307.125 935.006 300.967 Q935.006 294.602 938.432 290.875 Q941.881 287.125 947.714 287.125 Q952.946 287.125 955.978 290.505 Q959.034 293.861 959.034 299.648 M954.774 298.398 Q954.728 294.903 952.807 292.819 Q950.909 290.736 947.761 290.736 Q944.196 290.736 942.043 292.75 Q939.913 294.764 939.589 298.421 L954.774 298.398 Z" fill="#000000" fill-rule="nonzero" fill-opacity="1"></path><path clip-path="url(#clip940)" d="M991.14 290.736 Q987.714 290.736 985.723 293.421 Q983.733 296.083 983.733 300.736 Q983.733 305.389 985.7 308.074 Q987.691 310.736 991.14 310.736 Q994.543 310.736 996.533 308.051 Q998.524 305.366 998.524 300.736 Q998.524 296.13 996.533 293.444 Q994.543 290.736 991.14 290.736 M991.14 287.125 Q996.696 287.125 999.867 290.736 Q1003.04 294.347 1003.04 300.736 Q1003.04 307.102 999.867 310.736 Q996.696 314.347 991.14 314.347 Q985.561 314.347 982.39 310.736 Q979.242 307.102 979.242 300.736 Q979.242 294.347 982.39 290.736 Q985.561 287.125 991.14 287.125 Z" fill="#000000" fill-rule="nonzero" fill-opacity="1"></path><path clip-path="url(#clip940)" d="M1023.22 277.657 L1023.22 281.199 L1019.15 281.199 Q1016.86 281.199 1015.95 282.125 Q1015.08 283.051 1015.08 285.458 L1015.08 287.75 L1022.09 287.75 L1022.09 291.06 L1015.08 291.06 L1015.08 313.676 L1010.79 313.676 L1010.79 291.06 L1006.72 291.06 L1006.72 287.75 L1010.79 287.75 L1010.79 285.944 Q1010.79 281.616 1012.81 279.648 Q1014.82 277.657 1019.2 277.657 L1023.22 277.657 Z" fill="#000000" fill-rule="nonzero" fill-opacity="1"></path><path clip-path="url(#clip940)" d="M1052.46 282.194 Q1048.85 282.194 1047.02 285.759 Q1045.21 289.301 1045.21 296.43 Q1045.21 303.537 1047.02 307.102 Q1048.85 310.643 1052.46 310.643 Q1056.09 310.643 1057.9 307.102 Q1059.73 303.537 1059.73 296.43 Q1059.73 289.301 1057.9 285.759 Q1056.09 282.194 1052.46 282.194 M1052.46 278.491 Q1058.27 278.491 1061.32 283.097 Q1064.4 287.68 1064.4 296.43 Q1064.4 305.157 1061.32 309.764 Q1058.27 314.347 1052.46 314.347 Q1046.65 314.347 1043.57 309.764 Q1040.51 305.157 1040.51 296.43 Q1040.51 287.68 1043.57 283.097 Q1046.65 278.491 1052.46 278.491 Z" fill="#000000" fill-rule="nonzero" fill-opacity="1"></path><path clip-path="url(#clip940)" d="M1072.62 307.796 L1077.51 307.796 L1077.51 313.676 L1072.62 313.676 L1072.62 307.796 Z" fill="#000000" fill-rule="nonzero" fill-opacity="1"></path><path clip-path="url(#clip940)" d="M1100.54 283.19 L1088.73 301.639 L1100.54 301.639 L1100.54 283.19 M1099.31 279.116 L1105.19 279.116 L1105.19 301.639 L1110.12 301.639 L1110.12 305.528 L1105.19 305.528 L1105.19 313.676 L1100.54 313.676 L1100.54 305.528 L1084.94 305.528 L1084.94 301.014 L1099.31 279.116 Z" fill="#000000" fill-rule="nonzero" fill-opacity="1"></path><path clip-path="url(#clip940)" d="M1117.9 279.116 L1136.25 279.116 L1136.25 283.051 L1122.18 283.051 L1122.18 291.523 Q1123.2 291.176 1124.22 291.014 Q1125.24 290.829 1126.26 290.829 Q1132.04 290.829 1135.42 294 Q1138.8 297.171 1138.8 302.588 Q1138.8 308.166 1135.33 311.268 Q1131.86 314.347 1125.54 314.347 Q1123.36 314.347 1121.09 313.977 Q1118.85 313.606 1116.44 312.866 L1116.44 308.166 Q1118.52 309.301 1120.75 309.856 Q1122.97 310.412 1125.44 310.412 Q1129.45 310.412 1131.79 308.305 Q1134.13 306.199 1134.13 302.588 Q1134.13 298.977 1131.79 296.87 Q1129.45 294.764 1125.44 294.764 Q1123.57 294.764 1121.69 295.18 Q1119.84 295.597 1117.9 296.477 L1117.9 279.116 Z" fill="#000000" fill-rule="nonzero" fill-opacity="1"></path></svg>